<svg width="63.000000" height="72.000000" viewBox="0 0 63 72" fill="none" xmlns="http://www.w3.org/2000/svg" xmlns:xlink="http://www.w3.org/1999/xlink">
	<desc>
			Created with Pixso.
	</desc>
	<defs>
		<clipPath id="clip1_159">
			<rect rx="-0.014400" width="62.971199" height="71.971199" transform="translate(0.014400 0.014400)" fill="white" fill-opacity="0"/>
		</clipPath>
	</defs>
	<rect rx="-0.014400" width="62.971199" height="71.971199" transform="translate(0.014400 0.014400)" fill="#FFFFFF" fill-opacity="0"/>
	<g clip-path="url(#clip1_159)">
		<path d="M29.61 71.46C28.59 70.89 25.68 68.66 23.36 66.67C19.52 63.38 16.15 59.76 13.14 55.67C6.65 46.88 2.64 36.65 0.89 24.42C0.05 18.59 -0.27 10.45 0.26 8.63C0.6 7.48 1.36 6.41 2.33 5.73C3.38 5 6.72 3.69 9.72 2.83C16.08 1.01 23.1 0.13 31.44 0.13C42.06 0.12 50.75 1.53 58.09 4.46C60.71 5.5 61.67 6.25 62.43 7.81L62.93 8.84L62.92 13.33C62.88 25.81 60.06 37.94 54.9 47.73C53.59 50.22 50.49 55.05 48.95 56.98C46.11 60.56 42.82 63.99 39.56 66.79C37.36 68.68 34.1 71.14 33.19 71.6C32.08 72.16 30.78 72.11 29.61 71.46ZM31.82 71.14C31.64 71.09 31.37 71.09 31.2 71.14C31.03 71.18 31.16 71.22 31.51 71.22C31.85 71.22 31.99 71.18 31.82 71.14ZM24.78 66.7C24.78 66.67 24.64 66.52 24.47 66.39C24.19 66.17 24.18 66.17 24.4 66.46C24.63 66.76 24.78 66.85 24.78 66.7ZM23.72 65.81C23.72 65.78 23.5 65.56 23.23 65.32L22.74 64.88L23.17 65.38C23.57 65.84 23.72 65.96 23.72 65.81ZM21.24 63.45C20.61 62.81 20.06 62.28 20.01 62.28C19.96 62.28 20.43 62.81 21.06 63.45C21.69 64.09 22.24 64.62 22.29 64.62C22.34 64.62 21.87 64.09 21.24 63.45ZM18.58 60.75C17.96 60.11 17.4 59.59 17.35 59.59C17.31 59.59 17.78 60.11 18.41 60.75C19.03 61.4 19.59 61.92 19.63 61.92C19.68 61.92 19.21 61.4 18.58 60.75L18.58 60.75ZM16.99 58.99C16.99 58.96 16.77 58.73 16.5 58.49L16.02 58.06L16.45 58.55C16.85 59.01 16.99 59.13 16.99 58.99ZM15.93 57.73C15.93 57.69 15.75 57.51 15.53 57.32L15.13 56.98L15.47 57.39C15.79 57.76 15.93 57.87 15.93 57.73ZM15.22 56.83C15.22 56.79 15.04 56.61 14.82 56.42L14.42 56.08L14.76 56.49C15.08 56.87 15.22 56.97 15.22 56.83ZM14.51 55.92C14.51 55.89 14.37 55.75 14.2 55.61C13.92 55.39 13.91 55.39 14.13 55.68C14.37 55.98 14.51 56.07 14.51 55.92ZM13.98 55.21C13.98 55.17 13.84 55.03 13.67 54.89C13.39 54.67 13.38 54.67 13.6 54.96C13.83 55.26 13.98 55.35 13.98 55.21ZM13.45 54.49C13.45 54.45 13.31 54.31 13.14 54.17C12.86 53.95 12.85 53.96 13.07 54.24C13.3 54.54 13.45 54.64 13.45 54.49ZM10.97 50.78C10.87 50.59 10.74 50.42 10.69 50.42C10.64 50.42 10.69 50.59 10.79 50.78C10.9 50.98 11.02 51.14 11.07 51.14C11.12 51.14 11.08 50.98 10.97 50.78ZM10.44 49.88C10.34 49.69 10.21 49.53 10.16 49.53C10.11 49.53 10.16 49.69 10.26 49.88C10.37 50.08 10.49 50.24 10.54 50.24C10.59 50.24 10.54 50.08 10.44 49.88ZM9.91 48.99C9.8 48.79 9.68 48.63 9.63 48.63C9.58 48.63 9.63 48.79 9.73 48.99C9.84 49.18 9.96 49.35 10.01 49.35C10.06 49.35 10.01 49.18 9.91 48.99ZM8.28 45.85C7.77 44.82 7.33 44 7.29 44.04C7.22 44.11 9 47.73 9.11 47.73C9.16 47.73 8.78 46.88 8.28 45.85ZM6.74 42.58C6.54 42.21 6.49 42.33 6.66 42.78C6.72 42.94 6.8 43.04 6.85 42.99C6.89 42.94 6.85 42.76 6.74 42.58L6.74 42.58ZM23.75 11.5C23.62 11.45 23.47 11.45 23.41 11.51C23.35 11.57 23.46 11.62 23.64 11.61C23.85 11.6 23.89 11.56 23.75 11.5ZM1.48 8.11C1.54 7.95 1.51 7.88 1.41 7.94C1.31 8 1.23 8.13 1.23 8.22C1.23 8.48 1.36 8.42 1.48 8.11ZM61.78 8.23C61.78 8.14 61.61 7.88 61.41 7.65L61.04 7.22L61.36 7.81C61.69 8.41 61.78 8.5 61.78 8.23L61.78 8.23ZM19.86 5.57C19.73 5.52 19.57 5.53 19.52 5.59C19.46 5.65 19.56 5.69 19.75 5.68C19.95 5.67 20 5.63 19.86 5.57ZM27.52 5.33C27.7 5.14 27.8 4.98 27.75 4.98C27.71 4.98 27.52 5.14 27.35 5.33C27.17 5.53 27.07 5.69 27.11 5.69C27.16 5.69 27.35 5.53 27.52 5.33ZM23.04 5.21C22.91 5.16 22.76 5.17 22.7 5.23C22.64 5.29 22.75 5.33 22.93 5.32C23.14 5.31 23.18 5.27 23.04 5.21ZM44.28 1.8C44.16 1.75 44 1.75 43.95 1.81C43.89 1.87 43.99 1.92 44.18 1.91C44.38 1.9 44.43 1.86 44.28 1.8ZM42.87 1.62C42.74 1.57 42.59 1.57 42.53 1.63C42.47 1.69 42.58 1.74 42.76 1.73C42.97 1.72 43.01 1.68 42.87 1.62ZM41.46 1.44C41.34 1.39 41.14 1.39 41.02 1.44C40.9 1.49 41 1.53 41.24 1.53C41.49 1.53 41.58 1.49 41.46 1.44ZM23.93 1.26C23.8 1.21 23.65 1.21 23.59 1.27C23.53 1.33 23.63 1.38 23.82 1.37C24.03 1.36 24.07 1.32 23.93 1.26ZM39.42 1.26C39.25 1.21 39.01 1.22 38.89 1.27C38.77 1.31 38.91 1.35 39.21 1.35C39.5 1.34 39.6 1.3 39.42 1.26ZM27.3 1.07C26.98 1.03 26.5 1.03 26.24 1.07C25.97 1.12 26.23 1.15 26.81 1.15C27.4 1.15 27.62 1.11 27.3 1.07ZM36.68 1.07C36.36 1.03 35.88 1.03 35.62 1.07C35.35 1.12 35.61 1.15 36.2 1.15C36.78 1.15 37 1.11 36.68 1.07Z" fill="#F7DE9F" fill-opacity="1.000000" fill-rule="nonzero"/>
		<path d="M29.84 71.53C26.67 69.84 19.27 63.16 15.42 58.51C5.62 46.68 0.73 32.38 0.06 13.62C-0.1 8.97 0.2 7.77 1.94 6.18C4.16 4.15 12.92 1.63 20.71 0.77C35.17 -0.82 49.06 0.67 58.98 4.89C61.76 6.07 62.83 7.64 62.98 10.71C63.07 12.73 62.76 18.77 62.39 22.01C60.11 41.98 51.88 57.1 36.83 68.94C33.67 71.42 32.92 71.86 31.71 71.93C30.9 71.98 30.54 71.9 29.84 71.53ZM33.93 70.19C39.65 66.25 45.55 60.41 49.82 54.47C55.47 46.6 59.2 37.28 61.06 26.35C62.15 19.94 62.61 10.71 61.95 8.48C61.57 7.17 60.37 6.23 57.77 5.19C50.21 2.17 39.85 0.61 29.29 0.91C19.69 1.18 11.93 2.56 5.28 5.18C3.38 5.93 2.9 6.2 2.07 7C1.12 7.92 1.09 7.97 0.87 9.38C0.62 11.05 0.85 17.49 1.33 21.68C3.62 42.02 12.01 57.19 27.54 69.06C29.97 70.92 30.59 71.26 31.53 71.26C32.26 71.26 32.57 71.13 33.93 70.19ZM29.73 70.34C28.91 69.83 26.58 68.04 24.78 66.52C15.14 58.44 8.5 48.6 4.69 36.76C3.22 32.2 2.12 26.85 1.5 21.31C1.21 18.63 0.86 10.95 0.99 10.09C1.21 8.74 1.22 8.73 1.61 8.94C2.17 9.25 2.42 8.88 2.05 8.31C1.82 7.95 1.8 7.76 1.95 7.48C2.92 5.65 11.79 2.83 19.73 1.85C23.57 1.37 26.59 1.2 31.52 1.2C41.06 1.2 48.25 2.21 55.14 4.52C58.25 5.56 60.13 6.39 60.63 6.96C60.95 7.31 60.95 7.35 60.65 7.86C60.26 8.52 60.39 8.75 61.16 8.75C61.81 8.75 61.79 8.73 62.03 10.16C62.18 11.04 61.82 18.86 61.5 21.68C60.05 34.67 55.99 45.73 49.31 54.86C45.38 60.24 39.33 66.18 34 69.9L32.74 70.79L32.45 70.38C32.21 70.03 32.06 69.98 31.44 70.06C31.05 70.12 30.63 70.28 30.53 70.43C30.35 70.67 30.26 70.66 29.73 70.34ZM25.92 47.99C26.23 47.67 26.29 47.19 26.02 47.19C25.92 47.19 25.84 47.27 25.84 47.37C25.84 47.46 25.64 47.59 25.4 47.66C24.96 47.77 24.85 47.92 25.07 48.15C25.27 48.35 25.62 48.28 25.92 47.99L25.92 47.99ZM21.24 45.65C21.24 45.61 21.16 45.57 21.06 45.57C20.96 45.57 20.88 45.66 20.88 45.76C20.88 45.87 20.96 45.9 21.06 45.84C21.16 45.78 21.24 45.7 21.24 45.65ZM33.61 44.13C33.31 43.64 33.04 43.24 33.01 43.24C32.97 43.24 33.16 43.67 33.42 44.2C33.68 44.73 33.95 45.13 34.02 45.09C34.09 45.05 33.91 44.62 33.61 44.13ZM36.55 41.08C36.61 40.98 36.49 40.92 36.26 40.95C35.94 40.98 35.83 40.88 35.74 40.45C35.63 39.95 35.62 39.95 35.6 40.37C35.57 41.07 36.25 41.58 36.55 41.08ZM32.55 38.32C33.35 38.17 33.63 37.91 33.63 37.32C33.63 36.8 33.11 35.91 33.1 36.42C33.1 36.57 32.75 37.05 32.32 37.48C31.89 37.9 31.49 38.41 31.44 38.61C31.36 38.92 31.38 38.93 31.65 38.7C31.81 38.55 32.22 38.39 32.55 38.32L32.55 38.32ZM38.23 38.03C37.06 37.88 36.65 37.68 36.04 36.94C35.28 36.03 35.49 34.97 36.52 34.52L37.08 34.27L36.45 34.26C34.6 34.24 34.57 36.84 36.41 37.83C36.88 38.08 37.4 38.19 38.14 38.18L39.21 38.16L38.23 38.03ZM43.17 36.32C43.17 36.12 43.12 36.06 43.07 36.19C43.02 36.31 42.83 36.41 42.64 36.41C42.46 36.41 42.3 36.47 42.3 36.55C42.3 36.62 42.5 36.68 42.75 36.68C43.08 36.68 43.19 36.59 43.17 36.32L43.17 36.32ZM24.33 35.28C24.62 34.82 25.05 34.39 25.28 34.33C25.77 34.19 26.96 34.54 27.65 35.02C28.35 35.5 29.25 35.62 29.54 35.26C29.67 35.1 29.99 34.97 30.24 34.97C30.69 34.96 30.7 34.95 30.37 34.7C30.15 34.54 29.61 34.43 28.95 34.43C27.65 34.43 27.08 34.16 26.72 33.39L26.44 32.8L26.11 33.18C25.63 33.71 25.07 33.58 24.95 32.91L24.86 32.37L24.31 33.18C23.54 34.32 23.19 35.07 23.19 35.56C23.19 36.51 23.6 36.41 24.33 35.28L24.33 35.28ZM35 33.19C35.18 33.15 34.98 31.96 34.7 31.39C34.43 30.86 34.21 30.67 33.77 30.58C32.03 30.23 31.59 29.69 31.76 28.08C31.88 26.85 31.87 26.82 30.92 26.11C30.55 25.83 30.16 25.4 30.05 25.17C29.8 24.6 29.54 24.62 28.32 25.3C26.9 26.1 26.76 26.37 27.41 27.21C27.7 27.58 27.99 28.22 28.05 28.64C28.12 29.07 28.27 29.41 28.39 29.41C28.72 29.41 29.03 30.21 29.03 31.08C29.03 31.72 29.15 31.98 29.81 32.74L30.58 33.64L32.77 33.42C33.97 33.3 34.98 33.19 35 33.19L35 33.19ZM38.84 31.82C38.6 31.18 38.16 29.7 37.87 28.54C37.56 27.32 37 25.75 36.53 24.78C35.76 23.2 35.54 22.92 35.33 23.27C35.21 23.46 36.14 25.78 36.81 26.97C37.09 27.47 37.53 28.73 37.79 29.77C38.06 30.85 38.45 31.94 38.71 32.33C38.96 32.7 39.19 33 39.22 33C39.25 33 39.08 32.47 38.84 31.82ZM34.65 22.52C33.73 21.76 34.2 21.2 35.32 21.72C35.67 21.88 35.76 22.03 35.7 22.36C35.65 22.64 35.68 22.72 35.79 22.61C36.11 22.29 35.85 21.77 35.2 21.45C34.04 20.88 33.45 21.56 34.36 22.42C34.66 22.7 34.96 22.94 35.02 22.93C35.08 22.93 34.91 22.74 34.65 22.52ZM42.05 21.42C42.19 21.08 42.3 20.61 42.3 20.39C42.3 19.84 41.71 18.88 41.21 18.61L40.8 18.4L41.18 18.83C42 19.77 42.15 20.58 41.68 21.51C41.51 21.84 41.48 22.04 41.6 22.04C41.71 22.04 41.91 21.76 42.05 21.42ZM29.06 17.19C28.28 16.7 28.33 16.03 29.2 15.43C29.7 15.09 30.01 15.02 30.75 15.07C31.39 15.11 31.68 15.06 31.68 14.91C31.68 14.79 32.06 14.57 32.52 14.43L33.36 14.16L32.3 14.25C30.68 14.39 29.52 14.78 28.77 15.44C28.19 15.95 28.1 16.12 28.21 16.52C28.27 16.79 28.54 17.12 28.81 17.27C29.53 17.67 29.73 17.6 29.06 17.19ZM5.81 12.75C5.75 9.22 5.75 9.2 6.15 9.02C6.74 8.76 6.63 8.56 6.01 8.77L5.48 8.96L5.48 12.63C5.48 15.17 5.54 16.29 5.68 16.29C5.81 16.29 5.85 15.23 5.81 12.75ZM35.02 16.14C35.2 16.02 35.18 15.96 34.92 15.9C34.74 15.85 34.49 15.92 34.37 16.05C34.19 16.25 34.21 16.29 34.46 16.29C34.64 16.29 34.89 16.22 35.02 16.14ZM56.96 8.94C57.23 9.05 57.36 9.06 57.26 8.96C57.16 8.86 56.91 8.73 56.69 8.67L56.29 8.54L56.33 12.28L56.37 16.02L56.42 12.39L56.47 8.76L56.96 8.94ZM8.93 14.27C9.05 14.16 8.96 14.14 8.67 14.23C7.98 14.43 7.08 14.83 7.08 14.93C7.08 15.06 8.73 14.48 8.93 14.27ZM10.63 10.83C11.39 7.52 11.42 7.43 11.94 7.2L12.48 6.97L12.01 6.96C11.75 6.95 11.47 7.05 11.37 7.18C11.19 7.4 9.54 14.3 9.57 14.72C9.59 15.19 9.89 14.1 10.63 10.83L10.63 10.83ZM53.65 14.02C53.45 13.65 53.4 13.77 53.57 14.22C53.63 14.38 53.71 14.47 53.76 14.43C53.81 14.38 53.76 14.2 53.66 14.02L53.65 14.02ZM51.24 7.17C51.48 7.22 51.63 7.19 51.58 7.11C51.53 7.02 51.29 6.95 51.06 6.95L50.62 6.95L50.66 10.59L50.71 14.23L50.76 10.66L50.81 7.09L51.24 7.17ZM13 13.16C12.93 12.8 12.83 12.54 12.79 12.59C12.74 12.64 12.75 12.98 12.82 13.34C12.89 13.7 12.98 13.95 13.03 13.9C13.08 13.85 13.06 13.52 13 13.16ZM15.27 9.98C15.31 6.52 15.31 6.5 15.71 6.44C15.92 6.41 16.1 6.3 16.1 6.2C16.1 6.09 15.93 6.06 15.71 6.12C15.49 6.18 15.25 6.23 15.17 6.23C15.1 6.23 15.04 7.9 15.04 9.95C15.04 11.99 15.09 13.61 15.14 13.56C15.2 13.5 15.26 11.89 15.27 9.98ZM48.81 6.54C49.26 6.47 49.25 6.46 48.72 6.44L48.15 6.41L48.19 10.05L48.23 13.69L48.28 10.15L48.33 6.62L48.81 6.54ZM17.18 11.54C16.93 10.81 16.7 10.24 16.67 10.27C16.63 10.31 16.79 10.98 17.01 11.78C17.24 12.57 17.47 13.14 17.53 13.04C17.59 12.95 17.43 12.27 17.18 11.54ZM45.8 10.77C45.76 10.3 45.73 10.68 45.73 11.62C45.73 12.56 45.76 12.94 45.8 12.48C45.83 12.01 45.83 11.24 45.8 10.77ZM19.29 10.96C19.29 9.91 19.26 9.08 19.23 9.12C19.07 9.3 18.98 12.88 19.13 12.88C19.22 12.88 19.29 12.02 19.29 10.96ZM21.77 9.02L21.77 5.54L22.56 5.42C23 5.35 23.64 5.33 23.98 5.37C24.32 5.41 24.53 5.37 24.45 5.29C24.37 5.21 23.67 5.16 22.9 5.19L21.5 5.25L21.46 8.99C21.42 11.5 21.47 12.69 21.59 12.61C21.7 12.54 21.77 11.19 21.77 9.02ZM43.15 5.68L43.63 5.66L43.19 5.52C42.95 5.45 42.69 5.42 42.61 5.46C42.54 5.5 42.5 7.17 42.52 9.16L42.56 12.79L42.61 9.24L42.66 5.69L43.15 5.68L43.15 5.68ZM54.48 8.09C54.95 8.19 54.95 8.19 54.43 7.95L53.9 7.7L53.81 9.89C53.76 11.09 53.76 12.19 53.81 12.34C53.86 12.49 53.92 11.57 53.95 10.3L54 7.99L54.48 8.09ZM27.37 11.62C26.82 10.96 26.64 10.15 26.66 8.44C26.67 6.97 27.09 5.65 27.66 5.24C27.87 5.1 28.36 4.97 28.76 4.97C29.34 4.97 29.41 4.93 29.15 4.77C28.7 4.51 27.97 4.73 27.39 5.3C26.14 6.5 26.01 10.43 27.18 11.71C27.76 12.35 27.91 12.27 27.37 11.62ZM33.62 5C34.39 5.04 34.92 5.01 34.81 4.93C34.7 4.86 34.03 4.8 33.32 4.8L32.04 4.8L32.08 8.52L32.12 12.25L32.17 8.59L32.22 4.94L33.62 5ZM34.78 11.08C34.61 10.58 34.44 10.2 34.39 10.25C34.34 10.3 34.44 10.76 34.6 11.26C34.77 11.77 34.94 12.14 34.99 12.09C35.04 12.05 34.95 11.59 34.78 11.08ZM24.26 11.34C24.68 10.96 24.72 9.86 24.33 9.37C24.06 9.03 24.06 9.03 24.24 9.41C24.7 10.38 24.26 11.44 23.38 11.45C23.13 11.45 22.8 11.53 22.65 11.64C22.46 11.78 22.58 11.81 23.16 11.74C23.58 11.69 24.07 11.51 24.26 11.34ZM37.59 11.22C37.19 10.45 37.05 7.93 37.35 6.85C37.65 5.75 38.42 5.1 39.31 5.19C39.68 5.22 39.93 5.19 39.89 5.11C39.84 5.04 39.48 4.98 39.09 4.98C38.22 4.98 37.47 5.65 37.19 6.7C36.87 7.86 36.95 10.16 37.34 11.04C37.53 11.46 37.73 11.8 37.79 11.8C37.84 11.8 37.75 11.54 37.59 11.22ZM12.36 11.47C12.55 11.34 12.54 11.16 12.31 10.44L12.04 9.56L12.14 10.38C12.23 11.11 12.2 11.22 11.83 11.4C11.45 11.58 11.45 11.6 11.77 11.61C11.96 11.61 12.23 11.55 12.36 11.47ZM40.17 11.27C40.27 11.08 40.36 10.82 40.35 10.69C40.35 10.56 40.25 10.66 40.12 10.9C39.94 11.27 39.77 11.35 39.25 11.33C38.89 11.32 38.64 11.38 38.69 11.47C38.88 11.78 39.98 11.64 40.17 11.27ZM29.6 10.72C29.82 10.27 29.91 9.66 29.91 8.57C29.91 6.65 29.57 5.81 28.75 5.73C28.42 5.7 28.11 5.78 27.98 5.94C27.79 6.18 27.83 6.19 28.32 6C28.83 5.8 28.91 5.82 29.21 6.2C29.85 7 29.9 9.89 29.29 10.84C29.06 11.2 28.88 11.28 28.49 11.22C28.21 11.18 28.03 11.22 28.08 11.31C28.13 11.39 28.43 11.44 28.73 11.41C29.17 11.36 29.36 11.22 29.6 10.72ZM19.23 5.87C19.31 5.79 19.54 5.69 19.73 5.64C19.97 5.58 19.91 5.55 19.54 5.54L18.98 5.51L18.43 7.45C18.12 8.51 17.88 9.5 17.88 9.65C17.89 9.79 18.16 9.04 18.49 7.97C18.81 6.89 19.15 5.95 19.23 5.87ZM40.41 8.88L41.33 8.81L40.31 8.78C39.31 8.75 39.29 8.75 39.32 9.24C39.34 9.65 39.36 9.67 39.42 9.34C39.48 9.01 39.63 8.94 40.41 8.88ZM25.23 8.94C25.16 8.83 25.03 8.75 24.92 8.75C24.81 8.75 24.82 8.85 24.96 9.02C25.2 9.32 25.42 9.25 25.23 8.94ZM45.84 7.47L45.84 6.01L46.33 6.13C46.69 6.21 46.75 6.2 46.55 6.06C46.41 5.96 46.15 5.88 45.98 5.88C45.71 5.87 45.67 6.06 45.67 7.31L45.67 8.75L44.74 8.68C44.01 8.63 43.95 8.64 44.43 8.74C45.89 9.06 45.84 9.09 45.84 7.47L45.84 7.47ZM24.08 8.06C24.58 7.64 24.62 6.7 24.15 6.27C23.85 5.99 23.84 5.99 24.05 6.27C24.34 6.66 24.24 7.68 23.89 7.86C23.75 7.94 23.35 8.08 23.01 8.18L22.39 8.35L23.03 8.37C23.42 8.38 23.84 8.26 24.08 8.06ZM34.87 7.85C35.29 7.42 35.33 6.55 34.95 6.16C34.54 5.75 34.45 5.81 34.77 6.27C35.39 7.16 35 7.83 33.75 8.04L33.01 8.16L33.76 8.19C34.3 8.2 34.62 8.11 34.87 7.85ZM40.11 6.64C40.05 6.58 40.01 6.69 40.02 6.88C40.03 7.09 40.07 7.13 40.12 6.99C40.17 6.86 40.17 6.7 40.11 6.64Z" fill="#F9CE5C" fill-opacity="1.000000" fill-rule="nonzero"/>
		<path d="M30 71.57C27.87 70.54 22.3 65.86 18.58 61.99C8.44 51.42 2.78 38.92 0.7 22.49C0.43 20.31 0 13.74 0 11.69C-0.01 8.36 1.04 6.33 3.32 5.23C5.77 4.05 10.67 2.52 14.42 1.76C20.97 0.43 30.15 -0.15 37.08 0.31C44.85 0.82 50.7 1.91 56.34 3.89C60.36 5.3 61.57 6.12 62.46 8.03C62.92 9.01 62.93 9.05 62.89 12.97C62.76 29.08 58.56 43.3 50.59 54.6C46.85 59.92 41.54 65.34 35.83 69.7C32.77 72.03 31.67 72.38 30 71.57L30 71.57ZM33.85 70.31C38.02 67.48 44.59 61.32 47.87 57.16C51.38 52.7 55.11 46.26 56.99 41.44C59.87 34.03 61.48 26.44 62.13 17.28C62.35 14.22 62.35 9.98 62.15 9.07C62.04 8.62 62.06 8.38 62.19 8.34C62.45 8.25 61.85 7.31 61.54 7.31C61.41 7.31 61.12 7.1 60.88 6.84C59.21 5.03 50.64 2.49 42.84 1.49C37.16 0.76 27.61 0.67 21.95 1.29C13.23 2.24 3.94 4.87 2.05 6.92C1.77 7.23 1.48 7.44 1.4 7.4C0.49 6.82 0.5 15.36 1.42 22.76C3.45 39.01 9.27 51.58 19.64 62.11C23.29 65.83 27.74 69.56 30.13 70.92C31.41 71.65 32.01 71.56 33.85 70.31ZM30.51 69.4C30.11 69.17 28.96 68.34 27.96 67.57C26.95 66.8 26.03 66.17 25.9 66.17C25.77 66.17 25.41 65.94 25.09 65.65L24.51 65.13L25.18 65.61C26.07 66.26 26.02 66.08 25.1 65.33C24.7 65 24.42 64.82 24.49 64.94C24.79 65.42 24.27 65.1 23.62 64.4C23.24 63.98 23.12 63.8 23.36 63.99C23.61 64.18 22.49 62.97 20.88 61.29C18.04 58.33 15.33 55.07 13.55 52.49C12.53 51.02 12.26 50.7 12.55 51.32L12.77 51.77L12.4 51.32C12.2 51.08 12.08 50.77 12.12 50.64C12.17 50.51 12.13 50.45 12.04 50.51C11.86 50.62 11.28 49.64 11.43 49.48C11.48 49.43 11.12 48.66 10.65 47.76C9.37 45.39 8.39 43.29 7.26 40.5C6.7 39.14 6.2 38.08 6.14 38.14C6.09 38.2 6.08 38.05 6.13 37.82C6.19 37.55 6.17 37.48 6.06 37.62C5.84 37.94 5.24 36.19 5.39 35.66C5.48 35.32 5.47 35.3 5.31 35.51C5.15 35.72 5.13 35.64 5.22 35.16C5.3 34.66 5.29 34.58 5.12 34.8C4.95 35.02 4.93 35.02 5.02 34.74C5.08 34.56 4.93 33.63 4.7 32.67C3.54 28.04 2.34 19.79 2.29 16.11C2.28 15.55 2.23 15.41 2.14 15.65C2.01 15.98 1.99 15.97 1.89 15.57C1.82 15.32 1.77 14.7 1.77 14.18C1.76 12.75 1.42 12.94 1.18 14.5C1.14 14.74 1.1 13.73 1.08 12.25C1.07 10.77 1.12 9.48 1.19 9.38C1.26 9.28 1.56 9.2 1.85 9.2C2.49 9.2 2.62 8.81 2.24 8.04C1.99 7.53 2 7.48 2.45 7.02C2.9 6.56 4.57 5.69 5.48 5.44C5.91 5.33 5.91 5.33 5.44 5.6C5.17 5.76 4.95 5.96 4.95 6.06C4.95 6.28 4.95 6.28 5.84 5.96C6.73 5.64 6.96 5.63 6.8 5.89C6.72 6.02 6.79 6.06 7.01 5.99C10.82 4.77 14.08 3.96 17.52 3.37C19.15 3.09 20.29 2.82 20.09 2.76C19.89 2.7 20.13 2.7 20.62 2.75C21.29 2.81 21.44 2.79 21.24 2.64C21.04 2.48 21.21 2.46 21.95 2.52C22.48 2.57 24.63 2.54 26.73 2.46C33.78 2.17 36.73 2.11 36.51 2.25C36.39 2.33 37.47 2.49 38.92 2.61C42.13 2.88 47.02 3.59 49.66 4.17C50.75 4.4 51.82 4.55 52.06 4.5C52.41 4.42 52.43 4.44 52.22 4.61C52 4.78 52.02 4.8 52.33 4.71C52.79 4.58 53.67 4.77 53.54 4.98C53.5 5.06 53.63 5.08 53.84 5.02C54.12 4.95 54.18 4.98 54.08 5.15C53.98 5.32 54.04 5.34 54.34 5.25C54.6 5.16 54.7 5.18 54.63 5.3C54.56 5.41 54.91 5.62 55.45 5.8C57.21 6.39 59.21 7.34 59.71 7.82C60.76 8.83 60.81 9.04 60.77 13.02C60.74 16.11 60.39 21.59 60.09 23.84C60 24.54 60.05 24.42 60.57 22.76C60.77 22.12 61 21.51 61.09 21.4C61.17 21.29 61.32 20.77 61.41 20.23C61.57 19.31 61.58 19.33 61.49 20.6C60.87 29.57 57.81 40.25 53.7 47.79C50.2 54.2 45.15 60.55 40.18 64.78L39.03 65.76L39.83 64.87C40.28 64.39 40.77 63.69 40.93 63.33C41.09 62.98 41.48 62.37 41.8 61.99L42.37 61.29L41.76 61.84C41.43 62.14 40.64 62.87 40 63.45C38.62 64.72 35.03 67.63 33.42 68.8C31.95 69.87 31.46 69.97 30.51 69.4L30.51 69.4ZM26.02 48.09C26.77 47.33 26.32 46.79 25.45 47.41C25.13 47.63 24.84 47.84 24.8 47.86C24.65 47.94 25.19 48.45 25.42 48.45C25.55 48.45 25.82 48.29 26.02 48.09ZM21.35 45.39C21.36 45.09 21.32 44.86 21.25 44.86C21.01 44.86 20.66 45.73 20.78 46.04C20.95 46.49 21.31 46.07 21.35 45.39ZM34.32 45.28C34.64 45.12 34.68 45.04 34.48 44.92C34.34 44.83 34.06 44.48 33.85 44.14C33.39 43.36 32.74 42.64 32.62 42.77C32.56 42.82 32.78 43.28 33.1 43.78C33.57 44.53 33.66 44.81 33.58 45.39C33.48 46.16 33.66 46.56 33.81 45.9C33.87 45.67 34.09 45.39 34.32 45.28L34.32 45.28ZM43.72 44.99C43.72 44.87 43.65 44.66 43.56 44.52C43.37 44.21 43.11 44.57 43.26 44.95C43.38 45.27 43.72 45.3 43.72 44.99L43.72 44.99ZM36.64 41.07C36.64 40.99 36.48 40.83 36.29 40.72C36.09 40.62 35.93 40.41 35.93 40.27C35.93 40.12 35.85 40 35.75 40C35.45 40 35.56 41.05 35.88 41.23C36.2 41.42 36.64 41.32 36.64 41.07ZM22.7 38.57L22.8 37.58L22.53 38.21C22.37 38.55 22.22 39.24 22.19 39.74C22.12 40.62 22.13 40.62 22.37 40.09C22.5 39.8 22.65 39.11 22.7 38.57ZM32 39.71C32.04 39.41 32.18 39.35 32.91 39.36C33.9 39.38 34.43 39.01 34.61 38.18C34.7 37.77 34.64 37.54 34.35 37.24C34.15 37.02 33.67 36.21 33.3 35.44C32.52 33.86 32.55 33.8 33.99 33.94C34.47 33.99 34.87 33.97 34.87 33.9C34.87 33.66 35.77 33.36 36.47 33.36C36.98 33.36 37.23 33.46 37.39 33.72C37.51 33.91 37.73 34.07 37.88 34.07C38.09 34.07 38.08 34.03 37.83 33.88C37.28 33.56 37.51 33.34 38.08 33.64C38.51 33.87 38.58 33.97 38.39 34.09C38.21 34.21 38.26 34.25 38.59 34.25C39.03 34.25 39.03 34.25 38.45 33.71C38.01 33.3 37.7 33.18 37.16 33.18C36.76 33.18 36.29 33.09 36.1 32.99C35.68 32.76 35.62 32.19 36.04 32.35C36.19 32.41 36.53 32.51 36.79 32.56L37.26 32.66L36.82 32.27C36.57 32.05 36.16 31.8 35.89 31.7C35.3 31.49 35.25 31.07 35.79 30.87C36.15 30.73 36.14 30.72 35.65 30.61C35.32 30.54 35.02 30.3 34.83 29.94C34.55 29.44 34.45 29.39 33.98 29.5C33.37 29.63 32.57 29.22 32.57 28.77C32.57 28.63 32.74 28.34 32.94 28.13L33.31 27.75L32.97 26.65C32.64 25.59 32.59 25.52 31.65 25.07C30.2 24.35 30.15 23.76 31.46 22.85C32.26 22.3 32.88 22.28 33.83 22.77C34.59 23.17 35.05 23.95 35.05 24.88C35.05 25.23 35.37 25.84 36.01 26.73C37.01 28.1 37.42 29.15 37.32 30.05C37.27 30.48 37.16 30.59 36.73 30.65C36.26 30.72 36.29 30.75 36.99 30.83C37.66 30.92 37.83 31.02 38.06 31.48C38.43 32.22 39.29 33.32 39.29 33.05C39.29 32.93 39.13 32.41 38.93 31.88C38.72 31.36 38.28 29.88 37.95 28.6C37.59 27.25 37.02 25.62 36.59 24.75C36.18 23.91 35.82 23.16 35.78 23.08C35.75 23 35.89 22.94 36.09 22.94C36.67 22.94 37.67 23.98 38.43 25.38C39.17 26.75 39.77 27.31 40.41 27.22C40.75 27.17 40.79 27.06 40.77 26.41C40.73 25.55 40.15 24.29 39.64 23.97C39.13 23.65 39.22 23.48 39.9 23.48C40.52 23.48 40.87 23.24 40.55 23.04C40.45 22.98 39.78 22.78 39.06 22.59C38.33 22.4 36.94 21.87 35.95 21.41C34.86 20.91 34.03 20.62 33.83 20.69C33.65 20.75 33.07 21.18 32.54 21.64C31.09 22.93 29.94 23.73 28.67 24.34C26.54 25.36 26.11 26.08 25.59 29.4C25.43 30.43 25.24 31.32 25.16 31.37C24.83 31.6 23.16 33.98 22.92 34.56C22.6 35.33 22.59 35.71 22.86 36.31C23.12 36.88 23.77 36.92 24.14 36.39C24.55 35.79 24.96 36.07 24.83 36.85C24.77 37.27 24.8 37.49 24.93 37.49C25.25 37.49 25.85 36.8 26.13 36.12C26.46 35.3 26.79 35.2 27.61 35.67C28.46 36.15 29.45 36.16 30.04 35.7C30.28 35.5 30.55 35.38 30.63 35.43C30.82 35.55 31.06 35.15 31.06 34.71C31.06 34.22 31.61 34.15 31.85 34.6C31.99 34.87 31.99 35.06 31.83 35.32C31.51 35.83 31.8 36 32.38 35.66L32.89 35.37L32.96 36.02C33.03 36.61 32.95 36.76 32.19 37.51C31.26 38.44 31 39.08 31.31 39.76C31.54 40.27 31.92 40.24 32 39.71ZM25.13 35.95C25.13 35.42 25.42 34.8 25.67 34.8C25.91 34.8 25.88 35.94 25.63 36.2C25.3 36.53 25.13 36.45 25.13 35.95ZM27.52 33.6C27.36 33.44 27.16 33.11 27.07 32.88C26.83 32.25 26.42 32.17 25.92 32.65C25.4 33.15 25.2 33.01 25.45 32.33C25.55 32.06 25.73 31.07 25.85 30.14C26.18 27.49 26.93 27.05 27.54 29.16C27.69 29.69 27.93 30.24 28.07 30.38C28.21 30.52 28.32 30.96 28.32 31.36C28.32 31.94 28.46 32.24 29.03 32.91C29.42 33.37 29.74 33.77 29.74 33.82C29.74 33.86 29.3 33.9 28.77 33.9C28.12 33.9 27.72 33.8 27.52 33.6ZM34.6 22.31C34.18 21.96 34.12 21.84 34.32 21.7C34.81 21.37 35.9 22.09 35.55 22.52C35.29 22.84 35.22 22.83 34.6 22.31ZM39.86 38.07C40.03 37.9 39.81 37.85 38.79 37.85C36.85 37.85 35.93 37.21 35.93 35.86C35.93 34.38 37.79 33.97 38.26 35.35C38.36 35.64 38.52 35.87 38.61 35.87C38.71 35.87 38.7 35.73 38.59 35.53C38.29 34.96 38.38 34.8 38.99 34.77C39.41 34.76 39.32 34.71 38.62 34.59C38.1 34.51 37.53 34.36 37.35 34.26C36.62 33.86 35.41 34.12 34.92 34.78C34.3 35.6 35.02 37.3 36.29 37.98C36.96 38.35 37.28 38.41 38.36 38.35C39.06 38.32 39.74 38.19 39.86 38.07ZM43.44 36.93C43.37 36.81 43.31 36.56 43.3 36.36C43.29 36.16 43.17 35.96 43.03 35.91C42.88 35.86 42.83 35.91 42.91 36.03C42.99 36.15 42.9 36.23 42.69 36.23C42.5 36.23 42.3 36.35 42.24 36.5C42.16 36.7 42.27 36.77 42.65 36.77C42.94 36.77 43.22 36.85 43.28 36.95C43.34 37.05 43.43 37.13 43.48 37.13C43.52 37.13 43.51 37.04 43.44 36.93ZM42.73 32.36C42.86 32.01 42.66 30.66 42.48 30.66C42.2 30.66 42 32.27 42.25 32.52C42.44 32.72 42.61 32.66 42.73 32.36ZM24.43 31.35C24.82 30.75 25.13 30.16 25.13 30.05C25.13 29.94 24.93 30.2 24.69 30.63C24.45 31.06 24.09 31.64 23.88 31.93C23.68 32.22 23.56 32.46 23.62 32.46C23.68 32.46 24.04 31.96 24.43 31.35ZM43.27 27.39C43.15 26.64 42.88 26.36 42.64 26.73C42.38 27.15 42.46 28.13 42.79 28.47C43.09 28.78 43.11 28.78 43.24 28.43C43.32 28.23 43.33 27.76 43.27 27.39ZM25.42 27.66C25.36 27.6 25.32 27.71 25.32 27.89C25.33 28.1 25.37 28.15 25.43 28C25.48 27.87 25.48 27.72 25.42 27.66ZM26.81 25.1C26.99 24.9 27.1 24.74 27.05 24.74C27 24.74 26.81 24.9 26.64 25.1C26.46 25.29 26.36 25.45 26.41 25.45C26.45 25.45 26.64 25.29 26.81 25.1ZM42.4 20.9C42.63 19.64 41.5 18.26 40 17.98C39.39 17.87 39.39 17.87 40.18 18.29C41.57 19.04 42.2 20.63 41.5 21.64C41.35 21.86 41.28 22.14 41.35 22.25C41.54 22.56 42.27 21.62 42.4 20.9ZM31.77 21.86C31.95 21.66 32.05 21.5 32 21.5C31.95 21.5 31.77 21.66 31.59 21.86C31.42 22.06 31.31 22.22 31.36 22.22C31.41 22.22 31.6 22.06 31.77 21.86ZM32.92 20.87C33.04 20.73 33.1 20.6 33.05 20.6C33 20.6 32.87 20.73 32.75 20.87C32.62 21.02 32.56 21.14 32.61 21.14C32.66 21.14 32.8 21.02 32.92 20.87ZM29.82 17.45C28.3 16.89 28.22 15.85 29.67 15.29C30.37 15.02 30.81 15.02 31.58 15.32C31.76 15.4 31.86 15.33 31.86 15.14C31.86 14.75 32.56 14.5 33.69 14.48C34.41 14.46 34.51 14.43 34.16 14.32C32.35 13.73 29 14.66 28.24 15.97L27.91 16.53L28.55 17.13C29.06 17.6 29.35 17.73 29.87 17.72L30.53 17.7L29.82 17.45ZM5.84 12.71C5.84 9.71 5.88 9.13 6.1 9.04C6.33 8.95 6.37 9.36 6.37 12.08C6.37 15.56 6.3 15.41 7.61 14.95C8.47 14.64 8.67 14.61 8.67 14.83C8.67 14.92 8.07 15.21 7.33 15.48C6.6 15.75 6.03 16.01 6.07 16.05C6.1 16.09 6.74 15.9 7.48 15.63C8.66 15.19 8.83 15.08 8.89 14.64C8.97 14.08 8.9 14.08 7.63 14.61C6.49 15.08 6.52 15.18 6.58 11.71C6.61 9.98 6.63 8.57 6.62 8.57C6.61 8.57 6.35 8.66 6.04 8.77L5.48 8.96L5.48 12.73C5.48 15.19 5.54 16.46 5.66 16.38C5.77 16.31 5.84 14.89 5.84 12.71ZM35.19 16.14C35.37 16.02 35.33 15.96 35.02 15.88C34.8 15.82 34.57 15.84 34.52 15.93C34.47 16.01 34.15 16.12 33.81 16.16C33.31 16.22 33.36 16.24 34.07 16.26C34.56 16.28 35.06 16.22 35.19 16.14ZM56.5 12.41L56.45 8.88L56.95 9.01C57.53 9.16 57.3 8.85 56.69 8.67L56.29 8.54L56.29 12.24C56.29 14.27 56.35 15.93 56.42 15.93C56.5 15.93 56.53 14.35 56.5 12.41ZM53.08 12.36C52.48 10.86 51.96 9.67 51.92 9.71C51.88 9.75 52.26 10.82 52.76 12.09C53.26 13.37 53.75 14.6 53.83 14.84C53.92 15.07 54.04 15.22 54.09 15.18C54.13 15.13 53.68 13.86 53.08 12.36ZM10.7 13.82C10.87 12.69 10.94 12.57 11.47 12.44C11.73 12.38 12.08 12.28 12.24 12.23C12.48 12.16 12.58 12.34 12.74 13.13L12.94 14.11L13.48 13.92C14.1 13.7 14.14 14.11 13.05 9.81L12.3 6.84L11.75 6.98C11.24 7.12 11.19 7.21 10.91 8.52C10.74 9.29 10.34 11.06 10.02 12.45L9.44 14.98L10.01 14.8C10.52 14.65 10.6 14.53 10.7 13.82ZM10.15 13.86C10.09 13.71 10.08 13.54 10.13 13.49C10.18 13.44 10.26 13.57 10.31 13.77C10.42 14.2 10.3 14.26 10.15 13.86ZM10.28 12.98C10.27 12.8 10.31 12.69 10.37 12.75C10.43 12.81 10.44 12.96 10.38 13.09C10.33 13.24 10.29 13.19 10.28 12.98ZM10.63 11.37C10.62 11.18 10.66 11.07 10.72 11.13C10.78 11.19 10.79 11.35 10.74 11.48C10.68 11.62 10.64 11.58 10.63 11.37ZM11.34 10.95C11.35 10.68 11.46 10.05 11.57 9.56L11.79 8.66L12.01 9.9C12.19 10.91 12.19 11.17 12 11.29C11.56 11.57 11.32 11.45 11.34 10.95ZM10.81 10.65C10.8 10.46 10.84 10.35 10.9 10.41C10.96 10.47 10.97 10.63 10.91 10.76C10.86 10.9 10.82 10.86 10.81 10.65ZM11.08 9.56C11.28 8.35 11.51 7.83 11.4 8.84C11.34 9.33 11.22 9.86 11.13 10.01C11.02 10.18 11.01 10.02 11.08 9.56ZM11.5 7.63C11.5 7.41 11.63 7.32 11.9 7.33C12.17 7.33 12.21 7.37 12.03 7.44C11.89 7.5 11.71 7.63 11.64 7.74C11.56 7.86 11.51 7.82 11.5 7.63ZM50.98 10.66L50.98 7.18L51.46 7.26C51.85 7.32 51.89 7.3 51.69 7.15C51.54 7.04 51.24 6.96 51.02 6.95L50.62 6.95L50.62 10.54C50.62 12.82 50.69 14.14 50.8 14.14C50.91 14.14 50.98 12.86 50.98 10.66ZM15.85 13.42C16.06 13.42 16.11 12.96 16.13 11.04C16.14 9.73 16.19 8.86 16.23 9.11C16.36 9.82 17.37 13.13 17.52 13.29C17.59 13.38 17.7 13.13 17.76 12.76C17.83 12.38 18.15 11.22 18.49 10.18L19.1 8.3L18.99 10.65L18.89 13L19.44 12.92L19.99 12.84L20.04 9.18L20.09 5.51L19.53 5.51C18.99 5.51 18.96 5.56 18.58 6.82C18.37 7.53 18.05 8.67 17.88 9.34L17.58 10.56L16.93 8.51C16.57 7.38 16.28 6.37 16.28 6.26C16.28 6.03 16.04 6 15.44 6.17C15.04 6.27 15.04 6.29 15.04 9.96C15.04 13.24 15.07 13.62 15.32 13.53C15.48 13.47 15.72 13.42 15.85 13.42ZM48.36 10.07L48.31 6.55L48.76 6.66C49.01 6.73 49.21 6.71 49.21 6.62C49.21 6.53 48.97 6.42 48.68 6.37L48.15 6.3L48.15 9.95C48.15 11.95 48.21 13.6 48.28 13.6C48.35 13.6 48.39 12.01 48.36 10.07ZM45.8 10.5C45.76 9.98 45.73 10.41 45.73 11.44C45.73 12.48 45.76 12.9 45.8 12.39C45.83 11.87 45.83 11.02 45.8 10.5ZM23.91 12.33C24.87 12.08 25.35 11.44 25.45 10.29C25.52 9.43 25.47 9.26 25.1 8.88C24.68 8.45 24.67 8.43 24.99 8.03C25.48 7.41 25.42 6.15 24.87 5.59C24.46 5.17 24.32 5.14 22.96 5.19L21.5 5.24L21.46 8.95L21.41 12.65L22.34 12.57C22.85 12.52 23.56 12.41 23.91 12.33ZM22.48 10.27L22.48 9.11L23.16 9.11C23.97 9.11 24.42 9.53 24.42 10.31C24.42 11.01 23.94 11.44 23.13 11.44L22.48 11.44L22.48 10.27ZM22.55 7.96C22.5 7.82 22.48 7.36 22.51 6.93C22.56 6.23 22.62 6.14 23.04 6.09C23.81 6 24.25 6.34 24.25 7.03C24.25 7.72 24.04 7.93 23.22 8.09C22.81 8.17 22.61 8.13 22.55 7.96ZM42.83 9.18C42.83 5.74 42.84 5.65 43.19 5.75C43.38 5.8 43.54 5.78 43.54 5.7C43.54 5.57 42.96 5.34 42.61 5.34C42.54 5.34 42.48 6.99 42.48 9.02C42.48 11.35 42.55 12.7 42.66 12.7C42.77 12.7 42.83 11.41 42.83 9.18ZM54.48 8.12C54.96 8.21 54.96 8.21 54.43 7.96L53.9 7.7L53.85 9.78C53.8 11.65 53.77 11.82 53.54 11.51C53.3 11.2 53.29 11.22 53.46 11.71C53.85 12.85 53.9 12.72 53.95 10.41L54 8.03L54.48 8.12ZM40.36 12.23C40.65 12.05 40.68 12 40.45 12.08C40.25 12.15 39.81 12.27 39.47 12.34C38.86 12.48 38.86 12.48 39.38 12.49C39.68 12.5 40.11 12.38 40.36 12.23ZM29.52 11.98C30.24 11.54 30.6 10.71 30.74 9.23C31.02 6.17 29.64 4.05 27.91 4.88C27.02 5.31 26.51 6.44 26.41 8.21C26.22 11.45 27.63 13.15 29.53 11.98L29.52 11.98ZM27.98 10.92C27.25 10.18 27.24 7.11 27.96 6.33C28.5 5.74 28.94 5.75 29.33 6.36C29.58 6.74 29.65 7.22 29.65 8.57C29.65 9.91 29.58 10.4 29.33 10.78C28.96 11.35 28.46 11.4 27.98 10.92ZM35.93 11.97C35.93 11.89 35.7 11.17 35.42 10.37L34.91 8.91L35.33 8.63C36.28 8 36.25 5.94 35.28 5.16C34.91 4.86 34.57 4.8 33.43 4.8L32.04 4.8L32.04 12.16L32.48 12.16C32.92 12.16 32.92 12.15 32.92 10.54L32.92 8.93L33.41 8.93C33.87 8.93 33.92 9.02 34.4 10.6C34.9 12.25 34.91 12.27 35.42 12.2C35.7 12.15 35.93 12.05 35.93 11.97ZM35.17 11.85C35.13 11.77 34.88 11.04 34.61 10.23L34.13 8.75L33.44 8.75C33 8.75 32.75 8.66 32.75 8.52C32.75 8.37 33.08 8.29 33.73 8.27C34.27 8.25 34.82 8.15 34.95 8.04C35.6 7.49 35.38 6.09 34.58 5.72C34.06 5.47 32.98 5.45 32.84 5.68C32.79 5.77 32.73 6.73 32.71 7.83C32.69 8.92 32.63 9.77 32.58 9.72C32.52 9.66 32.44 8.61 32.39 7.39L32.3 5.15L33.55 5.15C34.99 5.15 35.45 5.4 35.75 6.32C36.03 7.17 35.83 7.94 35.21 8.44L34.69 8.85L35.21 10.42C35.61 11.61 35.67 11.98 35.49 11.98C35.35 11.98 35.21 11.92 35.17 11.85ZM32.99 7.78C32.94 7.65 32.93 7.14 32.96 6.66C33.01 5.82 33.03 5.78 33.58 5.73C34.73 5.62 35.53 7.13 34.65 7.75C34.16 8.1 33.12 8.12 32.99 7.78ZM38.26 11.89C37.57 11.3 37.29 10.41 37.28 8.75C37.26 6.95 37.7 5.75 38.49 5.41C39.3 5.07 40.26 5.39 40.68 6.14C40.79 6.34 40.88 6.39 40.88 6.26C40.89 6.13 40.66 5.79 40.37 5.5C39.97 5.1 39.69 4.98 39.15 4.98C37.62 4.98 36.92 6.29 37.02 8.95C37.1 10.79 37.47 11.9 38.13 12.17C38.77 12.43 38.81 12.35 38.26 11.89ZM40.06 11.54C40.68 10.91 40.56 9.47 39.89 9.47C39.76 9.47 39.65 9.34 39.65 9.18C39.65 8.99 39.75 8.93 39.93 9C40.08 9.06 40.4 9.11 40.63 9.11C41.01 9.11 41.05 9.2 41.11 10.05L41.18 10.99L41.21 9.87L41.24 8.75L40.27 8.75C39.36 8.75 39.29 8.77 39.29 9.18C39.29 9.53 39.4 9.63 39.78 9.68C40.21 9.73 40.26 9.8 40.21 10.27C40.11 11.07 39.86 11.44 39.42 11.44C38.76 11.43 38.24 10.87 38.07 10C37.97 9.45 37.91 9.35 37.9 9.68C37.84 11.16 39.24 12.37 40.06 11.54L40.06 11.54ZM41.03 11.35C40.98 11.29 40.88 11.39 40.81 11.57C40.71 11.83 40.74 11.85 40.91 11.67C41.03 11.55 41.08 11.4 41.03 11.35ZM45.84 7.57C45.84 6.26 45.85 6.23 46.3 6.23C46.55 6.23 46.7 6.16 46.64 6.05C46.58 5.95 46.34 5.87 46.1 5.87C45.68 5.87 45.67 5.91 45.67 7.31C45.67 8.35 45.61 8.75 45.45 8.74C45.32 8.73 44.85 8.66 44.38 8.59C43.92 8.51 43.54 8.51 43.54 8.59C43.54 8.66 43.92 8.78 44.38 8.84C44.85 8.9 45.3 8.98 45.4 9.01C45.77 9.11 45.84 8.87 45.84 7.57ZM38.14 7.26C38.2 6.88 38.41 6.41 38.6 6.22C38.79 6.03 38.86 5.87 38.77 5.87C38.46 5.87 38.02 6.74 37.95 7.53C37.87 8.42 37.97 8.26 38.14 7.26ZM40.36 7.05C40.36 6.81 39.92 6.06 39.74 5.99C39.6 5.94 39.63 6.11 39.81 6.51C40.05 7.03 40.36 7.33 40.36 7.05ZM41.06 6.78C41.06 6.68 40.95 6.65 40.8 6.71C40.65 6.76 40.53 6.84 40.53 6.88C40.53 6.92 40.65 6.95 40.8 6.95C40.95 6.95 41.06 6.87 41.06 6.78ZM4.69 6.27C4.64 6.21 4.49 6.27 4.37 6.39C4.2 6.57 4.22 6.59 4.47 6.49C4.65 6.42 4.75 6.32 4.69 6.27Z" fill="#D8A016" fill-opacity="1.000000" fill-rule="nonzero"/>
		<path d="M31.08 71.82C30.41 71.72 29.96 71.5 29 70.81C25.74 68.44 23.04 66.23 20.62 63.97C19.69 63.1 17.66 61.02 16.94 60.2C14.01 56.88 11.59 53.46 8.62 48.5C7.96 47.41 7.16 45.78 6.07 43.3C2.53 35.26 0.67 27.14 0.13 17.25C0.02 15.32 -0.01 13.84 0 11.65C0 9.85 0.01 9.63 0.1 9.16C0.26 8.25 0.58 7.4 0.96 6.83C1.44 6.11 2.73 5.09 3.76 4.6C5.22 3.91 8.78 2.84 11.98 2.13C12.85 1.93 14.57 1.58 15.15 1.48C15.32 1.45 15.68 1.39 15.95 1.34C16.21 1.29 16.48 1.25 16.74 1.21C16.91 1.19 17.19 1.14 17.37 1.1C17.54 1.07 17.85 1.01 18.07 0.99C18.29 0.96 18.75 0.9 19.09 0.85C19.37 0.81 19.64 0.77 19.91 0.74C20.98 0.61 21.33 0.57 22.04 0.49C25.64 0.1 30.43 -0.08 33.89 0.04C35.41 0.09 38.85 0.29 39.12 0.34C39.2 0.35 39.54 0.38 39.87 0.4C40.21 0.42 40.77 0.47 41.11 0.51C41.45 0.55 42 0.62 42.33 0.65C43.87 0.83 45.21 1 45.78 1.1C45.99 1.14 46.54 1.23 47 1.3C51.88 2.08 55.92 3.22 58.92 4.66C60.22 5.28 60.74 5.63 61.37 6.31C62.11 7.1 62.54 7.93 62.78 8.98C62.97 9.87 62.88 15.41 62.62 18.93C62.26 23.73 61.63 27.77 60.6 32C59.49 36.56 58 40.75 55.83 45.38C55.09 46.95 54.9 47.33 54.29 48.37C53.96 48.92 53.68 49.4 53.67 49.43C53.66 49.45 53.59 49.56 53.52 49.67C53.44 49.78 53.36 49.92 53.33 49.96C53.3 50.01 53.19 50.2 53.09 50.37C52.98 50.54 52.89 50.7 52.88 50.73C52.87 50.75 52.85 50.78 52.83 50.79C52.82 50.81 52.72 50.96 52.61 51.13C52.49 51.32 52.37 51.51 52.25 51.7C52.15 51.84 52.08 51.97 52.08 52C52.08 52.02 52.06 52.05 52.04 52.06C52 52.08 51.77 52.44 51.77 52.5C51.77 52.52 51.74 52.55 51.7 52.56C51.66 52.58 51.63 52.61 51.63 52.63C51.63 52.66 51.52 52.84 51.39 53.04C51.25 53.23 51.15 53.41 51.15 53.44C51.15 53.46 51.12 53.49 51.08 53.51C51.04 53.52 51.01 53.56 51.01 53.6C51.01 53.64 51 53.67 50.98 53.67C50.96 53.67 50.91 53.72 50.88 53.79C50.84 53.86 50.8 53.94 50.78 53.96C50.63 54.16 50.45 54.41 50.13 54.88C49.81 55.34 49.47 55.8 49.02 56.41C45.04 61.77 40.87 65.8 34.31 70.62C33.36 71.33 32.91 71.58 32.35 71.72C31.96 71.82 31.41 71.86 31.08 71.82L31.08 71.82ZM32.21 71.41C32.76 71.27 33.22 71.01 34.1 70.37C42.46 64.22 47.14 59.22 52.47 50.71C53.9 48.43 54.59 47.22 55.16 46.02C56.71 42.74 57.83 40.01 58.75 37.25C60.98 30.56 62.18 23.47 62.49 15.27C62.56 13.34 62.54 9.61 62.47 9.15C62.25 7.89 61.48 6.68 60.36 5.84C59.95 5.53 58.5 4.79 57.57 4.41C54.82 3.29 51.67 2.45 47.56 1.73C45.14 1.31 41.98 0.92 38.94 0.67C38.62 0.65 38.25 0.62 38.12 0.6C37.71 0.57 35.76 0.45 34.64 0.4C32.51 0.3 28.64 0.35 25.94 0.52C18.86 0.95 11.08 2.36 5.76 4.19C4.29 4.69 3.77 4.92 3.01 5.42C1.78 6.23 1.22 6.84 0.82 7.83C0.34 8.98 0.26 9.95 0.33 13.43C0.42 17.84 0.68 21.27 1.19 24.88C2.22 32.04 4.01 38.09 7.07 44.71C8.26 47.28 8.6 47.91 10.49 50.93C10.96 51.68 12.23 53.59 12.76 54.34C16.33 59.42 19.78 63.09 24.92 67.27C26.26 68.35 29.44 70.75 29.97 71.08C30.17 71.21 30.68 71.4 30.92 71.45C31.26 71.52 31.85 71.5 32.21 71.41ZM31.02 69.6C30.75 69.52 30.13 69.09 28.87 68.1C21.14 62.05 16.77 57.31 12.42 50.23C11.83 49.29 11.05 47.96 10.53 47.02C10.01 46.08 8.34 42.57 7.51 40.64C4.56 33.83 2.93 26.75 2.44 18.52C2.26 15.63 2.24 11.67 2.39 10.84C2.55 9.94 2.85 9.14 3.26 8.53C3.7 7.86 4.52 7.19 5.3 6.86C6.9 6.2 10.52 5.16 13.62 4.47C19.02 3.28 24.05 2.67 29.7 2.51C31.26 2.47 33.96 2.48 34.51 2.54C34.61 2.55 34.99 2.57 35.35 2.58C38.85 2.72 43.55 3.22 46.91 3.82C51.07 4.56 54.24 5.49 56.95 6.78C57.37 6.98 57.87 7.22 58.06 7.3C59.55 8.01 60.24 9.1 60.47 11.13C60.58 12.13 60.31 17.08 59.96 20.57C58.96 30.45 56.96 37.67 53.18 44.97C51.66 47.92 49.22 51.95 47.38 54.57C44.22 59.06 41.16 62.2 35 67.26C34.88 67.36 34.36 67.79 33.85 68.22C33.33 68.64 32.78 69.08 32.62 69.19C32.04 69.58 31.48 69.73 31.02 69.6ZM19.54 53.54C20.08 53.29 20.26 52.91 20.33 51.85C20.38 51.15 20.52 50.88 20.87 50.8L21.04 50.77L21.02 50.34C20.99 49.71 20.99 48.77 21.03 48.63C21.05 48.56 21.27 48.25 21.52 47.93C22.12 47.18 22.47 46.67 22.57 46.4C22.62 46.28 22.7 45.89 22.75 45.54C22.85 44.81 22.81 44.91 23.61 43.59C23.85 43.2 24.2 42.54 24.4 42.14C24.61 41.69 24.83 41.32 24.93 41.21C25.01 41.12 25.1 41.02 25.18 40.93C25.23 40.87 25.29 40.82 25.32 40.82C25.41 40.82 25.67 41.11 25.77 41.31C25.87 41.51 25.87 41.56 25.87 42.57C25.87 43.62 25.87 43.62 25.98 43.7C26.03 43.75 26.13 43.79 26.18 43.79C26.28 43.79 26.28 43.79 26.16 43.65C25.98 43.46 25.93 43.19 25.97 42.42C25.99 41.83 25.99 41.75 25.9 41.48C25.84 41.32 25.8 41.12 25.81 41.04C25.83 40.9 25.84 40.89 26.03 40.88C26.25 40.86 26.35 40.79 26.47 40.55C26.56 40.38 26.58 40.24 26.57 39.98C26.56 39.86 26.53 39.82 26.33 39.72C26.03 39.55 25.94 39.42 25.89 39.05C25.82 38.62 25.88 37.28 25.97 36.97C26.05 36.7 26.09 36.7 26.4 36.92C26.71 37.13 27.65 37.54 28.12 37.66C28.69 37.8 29.46 37.82 29.71 37.69C29.92 37.58 30.71 36.97 31.04 36.65C31.2 36.51 31.44 36.31 31.59 36.2C31.73 36.09 31.93 35.94 32.03 35.85C32.12 35.77 32.25 35.7 32.3 35.7C32.46 35.7 32.88 35.88 33.03 36C33.29 36.23 33.16 36.46 32.51 36.89C32 37.23 31.45 37.83 31.2 38.33C31.08 38.56 30.54 40.18 30.54 40.29C30.54 40.48 30.69 40.88 30.84 41.08C31.37 41.83 31.63 42.25 31.68 42.47C31.71 42.59 31.77 42.77 31.81 42.86C31.95 43.21 31.78 43.4 31.2 43.55C30.97 43.6 30.68 43.66 30.54 43.68L30.29 43.71L30.36 43.82C30.42 43.91 30.43 43.92 30.47 43.86C30.5 43.8 30.6 43.79 31.01 43.79C31.42 43.79 31.56 43.77 31.75 43.7L31.98 43.6L32.1 43.74C32.22 43.9 32.94 44.65 32.94 44.62C32.94 44.51 32.6 43.72 32.32 43.2C32.13 42.85 31.89 42.36 31.78 42.13C31.67 41.89 31.42 41.49 31.22 41.21C31.02 40.94 30.84 40.67 30.82 40.6C30.76 40.38 30.79 39.99 30.9 39.68C31.07 39.2 31.21 39.23 31.21 39.76C31.21 40.14 31.26 40.26 31.69 40.88C32.17 41.59 32.21 41.65 32.45 42.26C32.66 42.78 32.91 43.26 33.21 43.69C33.36 43.9 33.65 44.68 33.65 44.87C33.65 44.94 33.59 45.04 33.5 45.13L33.35 45.28L33.25 45.15C33.2 45.09 33.14 45.05 33.13 45.06C33.11 45.08 33.09 45.22 33.08 45.38C33.06 45.67 33.06 45.68 33.22 45.82C33.37 45.95 33.38 45.98 33.38 46.23C33.38 46.56 33.48 46.78 33.68 46.91C33.76 46.97 34.02 47.05 34.31 47.11L34.8 47.21L34.98 47.07C35.28 46.82 35.64 46.39 35.69 46.2C35.75 45.99 35.71 45.8 35.59 45.69C35.53 45.63 35.48 45.56 35.44 45.49C35.35 45.32 35.43 45.27 35.82 45.27C36.15 45.27 36.17 45.26 36.27 45.14C36.39 45 36.69 44.33 36.87 43.82C36.96 43.56 36.98 43.41 36.98 43.07C36.97 42.73 37 42.59 37.09 42.31C37.25 41.85 37.25 41.51 37.09 41.21C36.96 40.95 36.87 40.86 36.54 40.65C36.17 40.42 36.22 40.27 36.72 40.08C37 39.97 37.15 39.85 37.15 39.72C37.15 39.62 37.14 39.62 36.75 39.64C36.37 39.67 36.36 39.67 36.28 39.54C36.03 39.18 35.89 39.13 35.64 39.31C35.37 39.5 34.75 40.63 34.75 40.94C34.75 41.12 34.96 41.3 35.32 41.45C35.51 41.53 35.71 41.63 35.76 41.66C35.95 41.78 36.04 41.99 36.04 42.29C36.04 42.45 36.06 42.63 36.08 42.69C36.11 42.76 36.13 42.95 36.13 43.1C36.13 43.34 36.11 43.45 36 43.67C35.82 44.04 35.26 44.77 35.12 44.83C34.96 44.89 34.79 44.76 34.71 44.51C34.66 44.33 34.66 44.3 34.75 44.09C34.96 43.61 34.99 43.43 34.94 42.73C34.91 42.38 34.87 42.04 34.84 41.97C34.75 41.77 34.6 41.83 34.29 42.21C34 42.56 33.82 42.71 33.66 42.71C33.51 42.71 33.46 42.56 33.48 42.2C33.51 41.83 33.59 41.59 33.9 40.89C34.14 40.36 34.52 39.36 34.65 38.92C34.75 38.58 34.76 37.72 34.67 37.37C34.62 37.18 34.55 37.06 34.38 36.87C33.98 36.44 33.45 35.7 33.17 35.17C32.85 34.55 32.64 33.91 32.75 33.91C32.81 33.91 33.3 34.55 33.5 34.88C33.75 35.3 33.88 35.41 34.1 35.38C34.26 35.35 34.27 35.36 34.29 35.52C34.38 36.05 34.63 36.57 35.02 37.04C35.2 37.25 35.95 37.86 36.17 37.97C36.42 38.1 36.84 38.24 37.32 38.35C37.62 38.42 37.85 38.44 38.42 38.44C39.18 38.44 39.35 38.41 39.53 38.23C39.58 38.18 39.73 38.1 39.88 38.05C40.02 37.99 40.18 37.93 40.24 37.89C40.4 37.81 40.52 37.63 40.49 37.52C40.46 37.43 40.42 37.42 39.9 37.4C39.23 37.36 38.63 37.22 38.17 36.99C37.97 36.89 37.77 36.8 37.56 36.71C37.04 36.52 36.64 36.19 36.55 35.9C36.51 35.75 36.6 35.62 36.77 35.59C36.86 35.57 36.94 35.54 36.95 35.52C36.96 35.5 37.01 35.48 37.05 35.48C37.24 35.48 37.25 35.42 37.15 35C37.03 34.49 37.03 34.4 37.14 34.4C37.33 34.4 37.46 34.51 37.71 34.89C37.85 35.1 38.08 35.39 38.22 35.54C38.44 35.77 38.49 35.79 38.65 35.79C38.74 35.79 38.84 35.77 38.85 35.75C38.87 35.73 38.84 35.63 38.79 35.53C38.73 35.42 38.7 35.26 38.7 35.12C38.7 34.94 38.72 34.87 38.83 34.74C38.96 34.59 38.99 34.58 39.23 34.58C39.53 34.58 39.72 34.69 39.89 34.95C39.99 35.11 40.01 35.12 40.2 35.12C40.34 35.12 40.45 35.09 40.57 35C40.71 34.9 40.75 34.89 40.84 34.93C40.9 34.96 41 35.06 41.06 35.15C41.13 35.26 41.21 35.36 41.3 35.45C41.43 35.57 41.46 35.58 41.68 35.55C41.81 35.53 41.97 35.54 42.03 35.57C42.23 35.64 42.25 35.75 42.17 36.2C42.1 36.57 42.1 36.61 42.17 36.8C42.21 36.9 42.3 37.06 42.38 37.14C42.53 37.32 42.53 37.32 42.6 37.89C42.66 38.43 42.61 38.81 42.38 39.4C42.29 39.65 42.14 40.05 42.05 40.29C41.96 40.52 41.83 40.78 41.76 40.87L41.64 41.02L41.82 41.16C42.05 41.34 42.23 41.64 42.48 42.3C42.84 43.23 42.87 43.34 42.88 43.7C42.88 43.98 42.85 44.12 42.69 44.61C42.44 45.37 42.44 45.66 42.66 45.96C42.75 46.08 42.82 46.2 42.82 46.24C42.82 46.29 42.71 46.5 42.57 46.73C42.02 47.65 42.02 48.08 42.58 48.59C42.88 48.87 43.13 49.01 43.3 48.99C43.41 48.98 43.42 48.96 43.43 48.73C43.44 48.45 43.57 48.27 43.72 48.29C43.8 48.3 43.82 48.35 43.84 48.61C43.88 48.99 43.9 49.04 44 49.04C44.19 49.04 44.8 48.56 44.93 48.31L45 48.18L44.8 48.32C44.7 48.39 44.56 48.5 44.5 48.57C44.38 48.71 44.24 48.72 44.09 48.59C43.93 48.47 43.91 48.3 43.99 47.96C44.09 47.57 44.06 47.26 43.91 47.13C43.8 47.04 43.74 47.02 43.45 47.02C43.26 47.02 43.08 47 43.04 46.98C42.92 46.9 43.06 46.72 43.34 46.58C43.76 46.36 43.78 46.21 43.42 46.03C43.19 45.9 43.13 45.83 43.13 45.62C43.13 45.39 43.29 45.18 43.52 45.09C43.81 44.98 43.92 44.82 43.92 44.54C43.92 44.24 43.82 44.04 43.55 43.83C43.12 43.5 43.13 43.52 43.13 43.12C43.13 42.83 43.14 42.74 43.21 42.67C43.27 42.61 43.3 42.5 43.32 42.22C43.33 41.99 43.37 41.79 43.43 41.66C43.58 41.36 43.56 41.28 43.28 40.85C43.09 40.57 43.04 40.29 43.04 39.65C43.04 39.39 43.02 39.12 43 39.06C42.94 38.91 42.99 38.4 43.07 38.37C43.2 38.32 43.4 38.46 43.54 38.7C43.69 38.96 43.73 38.98 43.76 38.85C43.8 38.7 44.01 38.74 44.52 38.96C45.68 39.47 46.98 39.58 47.68 39.21C48.07 39.01 48.79 38.38 48.98 38.07C49.15 37.79 49.14 37.78 48.42 37.8C47.7 37.83 47.26 37.78 46.78 37.6C46.38 37.45 45.93 37.15 45.67 36.85C45.56 36.72 45.26 36.43 45.01 36.22C44.76 36.01 44.54 35.81 44.53 35.77C44.52 35.75 44.51 35.74 44.49 35.72C44.47 35.71 44.45 35.7 44.43 35.7C44.3 35.7 43.7 35.42 43.37 35.21C43.19 35.09 42.96 34.94 42.86 34.89C42.54 34.73 41.32 34.48 40.57 34.42L40.16 34.39L40.13 34.23C40.08 33.93 39.99 33.73 39.72 33.31C39.5 32.96 39.45 32.86 39.45 32.69C39.45 32.45 39.35 32.23 39.03 31.71C38.87 31.45 38.76 31.21 38.7 30.97C38.64 30.77 38.52 30.43 38.43 30.22C38.21 29.73 38.14 29.46 38.08 28.94C38.01 28.38 37.93 28.06 37.73 27.52C37.63 27.27 37.51 26.84 37.46 26.56C37.32 25.86 37.26 25.73 36.9 25.19C36.73 24.93 36.57 24.64 36.55 24.56C36.53 24.48 36.46 24.35 36.4 24.27C36.33 24.19 36.2 24 36.1 23.84C36.01 23.68 35.89 23.49 35.83 23.4C35.77 23.32 35.73 23.2 35.73 23.13C35.73 22.94 35.83 22.88 36.17 22.89C36.87 22.92 37.41 23.45 38.12 24.81C38.68 25.89 39.15 26.45 39.72 26.74C39.95 26.86 40.1 26.9 40.25 26.9C40.51 26.9 40.61 26.8 40.64 26.5C40.66 26.24 40.61 26 40.37 25.24C40.23 24.8 40.19 24.58 40.16 24.22C40.13 23.66 40.11 23.63 39.6 23.45C39.17 23.3 39.15 23.22 39.5 23.13C39.85 23.04 40.22 23.14 40.63 23.42C40.9 23.61 40.95 23.63 41.12 23.61C41.28 23.59 41.36 23.54 41.57 23.35C41.8 23.13 41.82 23.09 41.81 22.95C41.79 22.76 41.91 22.49 42.07 22.34C42.2 22.22 42.27 22.04 42.42 21.45C42.63 20.66 42.58 20.01 42.26 19.47C42.01 19.04 40.83 18.08 40.14 17.76C39.51 17.47 39.48 17.46 36.08 17.42C32.29 17.38 30.6 17.29 30.11 17.13C29.4 16.88 28.89 16.44 28.97 16.14C29.01 15.97 29.25 15.73 29.46 15.65C29.86 15.49 30.41 15.6 31.5 16.04C32.49 16.45 33.09 16.55 34.24 16.51C35.26 16.48 36.07 16.35 36.28 16.2C36.35 16.14 36.35 16.14 36.27 16.07C36.23 16.03 35.91 15.92 35.55 15.83C34.78 15.63 34.36 15.47 34.36 15.37C34.36 15.31 34.43 15.3 34.94 15.33C35.54 15.35 36.2 15.46 36.71 15.63C37.03 15.73 37.75 15.75 37.98 15.67C38.14 15.61 38.16 15.5 38.05 15.38C37.77 15.1 36.21 14.53 35.01 14.28C34.26 14.13 33.67 14.09 32.42 14.11C30.87 14.14 30.23 14.26 29.49 14.64C28.88 14.95 28.18 15.6 27.95 16.05C27.69 16.58 27.87 16.94 28.62 17.39C29.14 17.71 29.54 17.84 30.41 17.96C31.99 18.19 33.1 18.24 36.15 18.24C37.64 18.24 38.83 18.26 38.99 18.28C39.44 18.36 39.98 18.55 40.27 18.75C40.6 18.97 41 19.45 41.21 19.87C41.35 20.15 41.37 20.23 41.37 20.52C41.38 20.81 41.36 20.89 41.25 21.09C41.08 21.41 40.73 21.8 40.55 21.87C40.35 21.96 39.85 21.87 39.25 21.64C38.84 21.49 38.69 21.45 38.28 21.42C37.74 21.38 37.68 21.36 36.88 21C36.06 20.64 34.81 20.23 34.18 20.12C33.89 20.07 33.6 20.13 33.18 20.32C32.76 20.52 32.52 20.71 31.69 21.52C30.9 22.28 30.55 22.56 30.11 22.78C29.31 23.16 27.03 24.46 26.82 24.65C26.51 24.92 25.99 25.57 25.77 25.94C25.36 26.64 25.24 27.18 25.19 28.45C25.16 29.32 25.15 29.36 25.01 29.72C24.86 30.12 24.45 30.83 23.89 31.67C23.37 32.46 23 33.09 22.75 33.59C22.26 34.58 22.17 34.95 22.13 36.36L22.1 37.39L21.94 37.86C21.85 38.12 21.66 38.61 21.53 38.94C21.02 40.17 21.03 40.11 20.98 42.37L20.95 44.04L20.76 44.41C20.66 44.61 20.49 44.91 20.38 45.07C20.14 45.43 20.07 45.72 19.98 46.78C19.95 47.11 19.92 47.44 19.89 47.77C19.87 47.94 19.8 48.03 19.31 48.58C18.37 49.62 18.01 50.17 18.01 50.54C18.01 50.73 17.99 50.76 17.82 50.88C17.48 51.12 16.99 51.68 16.83 52.02C16.64 52.43 16.59 52.81 16.71 53.04C16.84 53.3 16.93 53.25 17.29 52.76L17.62 52.31L17.72 52.42C17.78 52.47 17.83 52.54 17.83 52.57C17.83 52.6 17.75 52.8 17.65 53C17.55 53.21 17.48 53.43 17.49 53.49C17.5 53.64 17.66 53.66 18.58 53.65C19.24 53.64 19.34 53.63 19.54 53.54ZM19.12 51.11C18.97 51.04 18.74 50.52 18.78 50.32C18.81 50.15 18.86 50.14 19.09 50.23C19.32 50.33 19.44 50.32 19.67 50.14C19.88 49.97 19.95 49.96 20.04 50.04C20.11 50.12 20.1 50.26 20 50.46C19.94 50.56 19.89 50.66 19.84 50.76C19.71 51 19.33 51.19 19.12 51.11ZM20.55 46.87C20.45 46.77 20.44 46.72 20.44 46.38C20.44 46.17 20.43 45.97 20.42 45.94C20.41 45.9 20.42 45.85 20.44 45.81C20.48 45.75 20.51 45.77 20.62 45.89C20.73 46.01 20.79 46.03 20.94 46.03C21.07 46.03 21.16 46 21.23 45.94C21.36 45.81 21.46 45.86 21.46 46.04C21.45 46.35 21.26 46.69 21 46.86C20.78 47.01 20.69 47.01 20.55 46.87ZM34.65 46.46C34.53 46.43 34.42 46.39 34.39 46.36C34.32 46.28 34.24 45.73 34.29 45.6C34.38 45.33 34.72 45.45 34.8 45.79C34.85 45.98 34.86 45.99 35.02 45.99C35.22 45.99 35.29 46.07 35.29 46.32C35.29 46.45 35.27 46.47 35.15 46.5C34.96 46.54 34.9 46.53 34.65 46.46ZM21.48 42.74C21.29 42.65 21.23 42.43 21.25 41.96C21.27 41.53 21.44 41.13 21.68 40.97L21.83 40.87L21.94 41.01C22 41.09 22.09 41.14 22.15 41.14C22.32 41.14 22.65 40.94 22.9 40.71C23.02 40.59 23.24 40.4 23.38 40.27C23.69 40 23.77 39.81 23.76 39.35C23.76 38.76 23.72 38.63 23.44 38.38C23.16 38.12 23.05 37.89 23.05 37.56C23.04 37.18 23.23 36.96 23.56 36.96C23.75 36.96 23.87 37.08 24.1 37.48C24.48 38.14 25.04 38.4 25.4 38.08C25.58 37.93 25.64 37.92 25.73 38.02C25.79 38.08 25.8 38.21 25.8 38.74C25.8 39.09 25.82 39.43 25.84 39.49C25.87 39.56 25.96 39.63 26.13 39.7C26.44 39.82 26.53 39.98 26.5 40.27C26.47 40.51 26.34 40.67 26.11 40.74C25.86 40.8 25.68 40.74 24.92 40.31C24.69 40.18 24.43 40.16 24.27 40.27C24.21 40.31 24.06 40.48 23.94 40.65C23.76 40.89 23.62 41.02 23.27 41.26C22.79 41.58 22.65 41.72 22.37 42.17C22.17 42.49 21.93 42.75 21.85 42.76C21.82 42.76 21.75 42.77 21.71 42.78C21.66 42.79 21.55 42.77 21.48 42.74ZM28.6 33.23C28.44 33.15 28.21 33.07 28.09 33.05C27.8 32.98 27.64 32.9 27.55 32.77C27.49 32.67 27.49 32.63 27.56 32.39C27.64 32.07 27.59 31.82 27.44 31.68C27.36 31.61 27.28 31.6 26.96 31.6C26.74 31.61 26.5 31.64 26.39 31.68C26.28 31.72 26.19 31.75 26.18 31.75C26.16 31.75 26.21 31.32 26.25 31.16C26.28 31.04 26.34 30.97 26.45 30.9C26.71 30.73 26.75 30.63 26.72 30.18C26.69 29.64 26.76 29.37 26.93 29.37C26.95 29.37 27.04 29.45 27.13 29.54C27.25 29.66 27.33 29.8 27.4 30.02C27.57 30.56 27.64 30.67 27.81 30.67C28.08 30.68 28.09 30.7 28.09 31.33C28.09 32.03 28.13 32.13 28.59 32.59C29.3 33.31 29.3 33.56 28.6 33.23ZM35.8 29.62C35.78 29.55 35.78 29.32 35.8 29.1L35.83 28.71L35.7 28.62C35.59 28.55 35.48 28.54 34.67 28.54C33.87 28.54 33.73 28.53 33.58 28.45L33.4 28.37L33.54 28.34C33.61 28.32 33.86 28.3 34.09 28.3C34.58 28.29 34.77 28.25 34.97 28.09C35.55 27.66 35.43 27.13 34.57 26.27C34.04 25.73 33.95 25.59 33.96 25.32L33.98 25.13L34.2 25.35C34.32 25.48 34.49 25.7 34.58 25.85C34.82 26.27 35.62 27.39 35.93 27.72C36.37 28.21 36.53 28.64 36.46 29.11C36.42 29.36 36.16 29.67 35.97 29.71C35.84 29.74 35.83 29.73 35.8 29.62ZM34.83 22.51C34.76 22.42 34.69 22.33 34.62 22.24C34.57 22.15 34.42 21.98 34.31 21.84C34.06 21.55 34.02 21.45 34.14 21.33C34.25 21.21 34.76 21.21 34.98 21.33C35.2 21.45 35.37 21.8 35.4 22.22L35.43 22.55L35.3 22.52C35.2 22.5 35.16 22.51 35.14 22.56C35.1 22.67 34.96 22.65 34.83 22.51ZM33.54 16.18C33.49 16.17 33.35 16.12 33.24 16.07C32.99 15.96 32.92 15.83 33.07 15.71C33.2 15.6 33.3 15.61 33.52 15.72C33.62 15.78 33.83 15.83 33.98 15.84C34.16 15.86 34.29 15.9 34.41 15.98C34.59 16.1 34.61 16.14 34.51 16.18C34.43 16.22 33.67 16.21 33.54 16.18ZM24.41 51.28C24.72 51.12 25 50.79 25.25 50.3C25.37 50.05 25.54 49.8 25.67 49.67C25.93 49.4 25.99 49.3 26.11 48.85C26.22 48.42 26.42 48.02 26.78 47.48C27.18 46.87 27.36 46.7 27.89 46.41C28.72 45.96 28.77 45.9 28.82 45.27C28.84 45.02 28.89 44.76 28.93 44.69C29.01 44.53 29.43 44.14 29.77 43.92L30.03 43.74L28.8 43.74C27.85 43.74 27.5 43.76 27.27 43.81C27.1 43.85 26.87 43.88 26.75 43.87L26.54 43.86L26.26 44.55C26.11 44.93 25.98 45.29 25.98 45.33C25.98 45.48 25.84 46 25.76 46.17C25.64 46.4 24.89 47.19 24.69 47.29C24.6 47.34 24.46 47.38 24.39 47.38C24.24 47.38 24.06 47.51 23.99 47.68C23.96 47.75 23.8 47.91 23.62 48.03C23.23 48.32 22.74 48.78 22.61 48.98C22.47 49.22 22.39 49.56 22.39 50.03C22.39 50.51 22.49 50.93 22.6 50.93C22.63 50.93 22.8 50.83 22.98 50.71C23.48 50.34 23.59 50.42 23.28 50.93C23.18 51.09 23.1 51.24 23.1 51.27C23.1 51.36 23.42 51.42 23.81 51.41C24.11 51.4 24.23 51.37 24.41 51.28ZM24.85 48.83C24.56 48.62 24.3 48.35 24.3 48.26C24.3 48.22 24.4 48.14 24.57 48.05L24.84 47.91L25.02 48.03C25.26 48.2 25.46 48.22 25.75 48.11C26.08 47.98 26.11 48 26.06 48.29C26.04 48.42 26 48.58 25.97 48.63C25.9 48.78 25.61 48.9 25.29 48.94C25.05 48.96 25.01 48.95 24.85 48.83L24.85 48.83ZM29.5 48.91C29.6 48.88 29.56 48.87 29.31 48.87C29.03 48.86 28.99 48.85 29 48.78C29.01 48.74 29.12 48.66 29.25 48.59C29.37 48.53 29.49 48.46 29.51 48.44C29.53 48.42 29.55 48.25 29.55 48.05C29.55 47.63 29.61 47.54 29.95 47.48C30.18 47.43 30.28 47.34 30.28 47.17C30.28 47.1 30.23 47.05 30.08 46.98C29.84 46.87 29.75 46.74 29.87 46.64C29.91 46.6 30.11 46.43 30.31 46.25C30.64 45.97 30.69 45.9 30.74 45.7C30.85 45.26 30.95 44.7 30.92 44.61C30.87 44.49 30.72 44.33 30.65 44.33C30.62 44.33 30.55 44.29 30.5 44.24C30.44 44.18 30.41 44.17 30.41 44.21C30.41 44.24 30.28 44.49 30.12 44.76C29.96 45.03 29.74 45.42 29.65 45.62C29.49 45.95 29.44 46.01 29.2 46.18C28.52 46.64 28.16 47.23 28.07 48.02C28.02 48.39 28.05 48.64 28.14 48.64C28.18 48.64 28.31 48.55 28.44 48.44C28.57 48.32 28.71 48.23 28.75 48.23C28.82 48.23 28.82 48.27 28.8 48.54L28.77 48.85L28.91 48.9C29.08 48.95 29.32 48.96 29.5 48.91ZM43.34 33.43C43.42 33.37 43.58 33.19 43.69 33.04L43.88 32.77L43.77 32.63C43.33 32.08 43.05 31.66 42.84 31.24C42.7 30.96 42.59 30.71 42.6 30.67C42.6 30.56 42.73 30.42 43 30.25C43.6 29.87 43.67 29.71 43.69 28.54C43.7 28 43.69 27.6 43.66 27.42C43.59 27.04 43.38 26.64 43.11 26.33L42.88 26.07L42.7 26.13C42.49 26.19 42.17 26.5 42.06 26.74C41.94 27 41.96 27.3 42.11 27.91C42.2 28.28 42.25 28.56 42.25 28.79C42.25 29.2 42.23 29.3 42.04 30.09C41.85 30.89 41.79 31.32 41.79 31.99C41.79 32.58 41.85 32.87 42.02 33.12C42.32 33.55 42.98 33.71 43.34 33.43ZM5.96 16.42C6.37 16.2 7.45 15.74 8.34 15.4L9.1 15.11L9.1 14.49C9.1 14.15 9.08 13.88 9.06 13.88C9.01 13.88 7.71 14.41 7.27 14.61C7.08 14.7 6.9 14.77 6.88 14.77C6.86 14.77 6.84 13.39 6.84 11.61C6.84 9.87 6.83 8.44 6.81 8.44C6.79 8.44 6.49 8.58 6.13 8.74L5.48 9.05L5.46 12.78C5.45 14.83 5.45 16.52 5.46 16.54C5.49 16.61 5.68 16.56 5.96 16.42ZM57.36 14.83C57.35 13.95 57.33 12.25 57.31 11.06L57.28 8.89L56.71 8.64C56.39 8.51 56.08 8.4 56.01 8.4L55.89 8.4L55.89 15.89L56.07 15.94C56.18 15.96 56.49 16.09 56.77 16.21C57.05 16.33 57.3 16.43 57.33 16.43C57.35 16.43 57.37 15.88 57.36 14.83ZM54.91 10.05L54.91 7.96L54.41 7.79C54.14 7.7 53.88 7.61 53.84 7.59C53.79 7.56 53.7 7.54 53.63 7.54L53.49 7.54L53.49 9.44C53.49 10.48 53.49 11.36 53.49 11.39C53.52 11.64 53.3 11.15 52.52 9.22C51.84 7.55 51.59 6.98 51.52 6.96C51.36 6.88 50.53 6.69 50.4 6.69L50.26 6.69L50.26 14.24L50.37 14.24C50.46 14.24 51.33 14.44 51.64 14.53C51.72 14.55 51.72 14.44 51.69 12.25C51.67 10.66 51.68 9.96 51.71 9.99C51.74 10.02 52.23 11.19 52.8 12.59L53.84 15.15L54.34 15.31L54.84 15.47L54.87 13.81C54.89 12.9 54.9 11.21 54.91 10.05L54.91 10.05ZM9.71 14.93C9.78 14.9 10.04 14.8 10.28 14.73C10.52 14.65 10.72 14.59 10.72 14.58C10.72 14.58 10.82 14.09 10.94 13.51L11.16 12.44L11.36 12.38C12.06 12.17 12.52 12.07 12.55 12.12C12.57 12.15 12.67 12.56 12.78 13.03C12.88 13.51 12.98 13.91 13 13.93C13.02 13.95 13.32 13.9 13.67 13.82C14.2 13.69 14.31 13.65 14.29 13.59C14.29 13.55 14.12 12.96 13.93 12.29C13.73 11.62 13.28 10.07 12.93 8.85C12.58 7.62 12.28 6.61 12.27 6.6C12.26 6.59 12.04 6.64 11.79 6.7C11.54 6.77 11.29 6.83 11.23 6.84C11.12 6.85 11.11 6.9 10.58 9.3C10.28 10.64 9.88 12.46 9.69 13.33C9.34 14.9 9.34 14.92 9.43 14.95C9.56 15.01 9.56 15.01 9.71 14.93ZM11.36 11.46C11.36 11.39 11.8 9.19 11.83 9.12C11.87 9.04 11.92 9.24 12.18 10.38L12.37 11.23L12.19 11.27C12 11.32 11.57 11.44 11.44 11.48C11.4 11.49 11.36 11.48 11.36 11.46ZM49.3 10.16L49.33 6.43L49.07 6.38C48.83 6.33 48.59 6.27 48.35 6.22C48.1 6.16 47.85 6.12 47.81 6.12C47.74 6.12 47.73 6.29 47.72 8.82C47.71 11.43 47.73 13.61 47.76 13.64C47.79 13.68 49.22 13.95 49.25 13.92C49.26 13.91 49.29 12.22 49.3 10.16ZM15.6 13.4C15.91 13.34 16.17 13.29 16.18 13.29C16.18 13.29 16.2 12.44 16.2 11.4C16.21 9.98 16.22 9.53 16.26 9.61C16.29 9.67 16.58 10.48 16.92 11.4C17.26 12.32 17.56 13.07 17.58 13.07C17.73 13.07 17.71 13.11 18.64 9.92C18.76 9.49 18.88 9.12 18.9 9.1C18.92 9.07 18.94 9.91 18.94 10.95C18.94 11.99 18.95 12.84 18.97 12.84C19.02 12.84 20.01 12.71 20.16 12.69L20.29 12.66L20.28 9.04C20.27 7.04 20.25 5.34 20.24 5.26C20.22 5.12 20.21 5.11 20.08 5.13C19.7 5.2 19.06 5.26 18.96 5.24C18.9 5.23 18.84 5.23 18.83 5.25C18.82 5.27 18.54 6.16 18.21 7.23C17.87 8.31 17.58 9.25 17.56 9.33C17.53 9.41 17.5 9.47 17.49 9.46C17.48 9.45 17.19 8.63 16.85 7.63C16.51 6.63 16.23 5.79 16.22 5.77C16.2 5.73 16.04 5.75 15.67 5.82C15.38 5.88 15.09 5.93 15.01 5.93L14.87 5.93L14.85 7.35C14.83 8.13 14.82 9.83 14.82 11.12C14.82 13.63 14.81 13.48 15 13.51C15.02 13.52 15.29 13.47 15.6 13.41L15.6 13.4ZM46.75 9.69L46.76 5.93L46.66 5.91C46.23 5.81 45.57 5.7 45.45 5.7L45.31 5.7L45.33 7.16C45.35 8.58 45.35 8.62 45.27 8.62C45.22 8.62 44.86 8.57 44.46 8.51C44.05 8.45 43.71 8.4 43.69 8.4C43.67 8.4 43.66 7.73 43.66 6.92L43.66 5.43L43.56 5.41C43.36 5.37 42.44 5.25 42.32 5.25L42.2 5.25L42.2 12.78L42.89 12.87C43.28 12.92 43.6 12.96 43.62 12.95C43.63 12.94 43.64 12.16 43.62 11.22L43.6 9.51L43.71 9.53C43.77 9.55 44.14 9.6 44.53 9.66L45.25 9.76L45.25 13.25L45.4 13.25C45.48 13.25 45.79 13.3 46.09 13.36C46.4 13.41 46.67 13.46 46.69 13.45C46.72 13.45 46.74 12.15 46.75 9.69L46.75 9.69L46.75 9.69ZM39.91 12.64C40.58 12.46 41.02 12.04 41.23 11.36C41.3 11.12 41.31 10.93 41.31 9.83L41.31 8.58L39.27 8.58L39.27 8.79C39.27 8.91 39.26 9.17 39.24 9.36L39.21 9.7L40.08 9.7L40.06 10.3C40.05 10.86 40.04 10.91 39.93 11.08C39.6 11.58 38.92 11.49 38.53 10.89C38.24 10.46 38.23 10.36 38.23 8.46C38.23 6.79 38.23 6.75 38.33 6.57C38.45 6.35 38.7 6.12 38.86 6.08C38.93 6.07 39.01 6.05 39.04 6.04C39.14 6.01 39.41 6.12 39.56 6.25C39.76 6.42 39.89 6.67 39.92 6.94L39.95 7.14L40.61 7.14C41.36 7.14 41.31 7.18 41.2 6.69C40.99 5.66 40.16 4.98 39.13 4.98C38.1 4.98 37.27 5.63 36.96 6.65C36.92 6.8 36.9 7.28 36.9 8.62C36.9 10.58 36.93 10.82 37.19 11.35C37.36 11.69 37.72 12.1 38.04 12.31C38.28 12.47 38.7 12.63 38.96 12.68C39.22 12.72 39.67 12.7 39.91 12.64L39.91 12.64ZM23.15 12.4C24.66 12.27 24.76 12.24 25.15 11.82C25.86 11.05 25.95 9.46 25.33 8.83C25.19 8.69 24.9 8.53 24.76 8.53C24.71 8.53 24.74 8.5 24.87 8.43C25.54 8.1 25.73 6.7 25.26 5.68C25.07 5.28 24.82 5.01 24.48 4.86L24.23 4.74L23.5 4.8C22.75 4.85 21.32 4.99 21.3 5C21.29 5.01 21.27 6.71 21.26 8.78L21.23 12.54L21.64 12.52C21.87 12.5 22.55 12.45 23.15 12.4ZM22.56 11.34C22.54 11.32 22.53 10.83 22.53 10.26L22.53 9.22L23.18 9.19L23.83 9.17L23.98 9.31C24.06 9.39 24.18 9.56 24.24 9.7C24.35 9.91 24.36 10 24.36 10.35C24.36 10.71 24.35 10.78 24.24 10.97C24.05 11.29 23.94 11.33 23.21 11.35C22.87 11.36 22.58 11.35 22.56 11.34ZM22.78 8.05L22.52 8.03L22.54 7.06L22.55 6.08L23.15 6.07L23.76 6.06L23.96 6.29C24.44 6.83 24.39 7.71 23.86 7.98C23.65 8.09 23.5 8.09 22.78 8.05L22.78 8.05ZM29.18 12.24C30.11 12.04 30.74 11.38 30.85 10.5C30.87 10.32 30.89 9.36 30.88 8.37C30.87 6.39 30.86 6.33 30.58 5.77C30.41 5.44 29.98 5 29.68 4.84C29.38 4.68 29 4.57 28.65 4.55C27.87 4.49 27.03 5.07 26.6 5.95C26.29 6.57 26.28 6.73 26.31 8.78C26.35 10.7 26.37 10.87 26.59 11.28C27 12.05 28.13 12.46 29.18 12.24ZM28.24 11.07C27.99 10.99 27.81 10.84 27.69 10.62L27.57 10.43L27.56 8.55L27.55 6.67L27.68 6.42C27.99 5.78 28.72 5.66 29.25 6.17C29.46 6.36 29.57 6.61 29.62 6.93C29.64 7.08 29.66 7.91 29.67 8.78C29.68 10.34 29.68 10.35 29.58 10.56C29.35 11.03 28.75 11.26 28.24 11.07ZM36.21 12.2C36.21 12.17 35.93 11.41 35.57 10.52C35.22 9.62 34.93 8.87 34.93 8.85C34.93 8.83 35 8.8 35.09 8.78C35.75 8.66 36.12 8 36.13 6.98C36.13 6.01 35.72 5.13 35.12 4.77C34.89 4.64 34.53 4.6 32.82 4.56L31.74 4.53L31.74 12.07L31.88 12.09C31.96 12.1 32.27 12.12 32.57 12.12L33.12 12.13L33.11 10.52L33.11 8.91L33.48 8.9L33.85 8.89L34.25 10.18C34.46 10.89 34.69 11.64 34.76 11.83L34.87 12.19L35.35 12.2C35.62 12.21 35.87 12.22 35.91 12.23C36.06 12.27 36.21 12.26 36.21 12.2ZM33.1 7.87C33.08 7.86 33.07 7.38 33.07 6.82L33.07 5.8L33.62 5.77C34.22 5.74 34.4 5.78 34.63 6C35.02 6.38 34.99 7.41 34.59 7.77L34.44 7.9L33.79 7.9C33.42 7.9 33.12 7.89 33.1 7.87L33.1 7.87Z" fill="#9F6B08" fill-opacity="1.000000" fill-rule="nonzero"/>
		<path d="M30.3 69.15C28.82 68.24 25.13 65.25 22.65 62.95C18.59 59.19 14.51 54.14 11.73 49.44C5.8 39.4 2.71 27.71 2.35 13.85C2.25 9.8 2.25 9.67 2.64 8.86C3.15 7.79 3.61 7.48 6.04 6.53C12.76 3.91 19.85 2.7 29.56 2.51C40.52 2.3 49.59 3.62 56.88 6.49C59.41 7.48 59.86 7.79 60.37 8.86C60.76 9.67 60.77 9.79 60.66 13.94C60.06 36.7 52.22 53.58 36.23 66.55C34.29 68.12 32.27 69.55 31.76 69.71C31.51 69.79 31.05 69.61 30.3 69.15ZM19.56 53.63C19.83 53.5 20.04 53.17 20.19 52.6C20.31 52.15 20.53 51.63 20.68 51.45C20.85 51.25 20.99 50.65 21.03 49.93C21.1 48.88 21.19 48.64 21.79 47.87C22.17 47.37 22.59 46.56 22.75 45.97C22.91 45.41 23.16 44.7 23.32 44.41C24.45 42.19 25.18 40.9 25.31 40.9C25.71 40.9 26.02 41.75 26.02 42.82C26.02 43.66 26.09 43.98 26.3 44.1C26.56 44.24 26.56 44.32 26.33 44.78C26.18 45.07 26.01 45.54 25.94 45.83C25.77 46.56 25.2 47.32 24.61 47.63C24.34 47.78 23.75 48.26 23.3 48.7C22.65 49.34 22.48 49.63 22.48 50.1C22.48 50.89 22.74 51.31 23.04 51.01C23.39 50.64 23.55 50.75 23.43 51.26C23.31 51.72 23.33 51.73 23.9 51.62C24.64 51.47 25.3 51.04 25.42 50.64C25.47 50.47 25.58 50.21 25.67 50.06C25.75 49.92 26.08 49.24 26.4 48.57C26.79 47.73 27.22 47.13 27.76 46.68C28.2 46.32 28.67 45.74 28.81 45.4C29.23 44.38 30.44 43.52 30.44 44.23C30.44 44.66 29.76 45.93 29.26 46.43C28.63 47.07 28.14 47.93 28.14 48.4C28.14 48.82 28.39 48.95 28.58 48.63C28.78 48.31 29 48.44 28.9 48.81C28.82 49.11 28.9 49.17 29.36 49.17C30.26 49.17 31.12 48.65 31.25 48.01C31.32 47.71 31.52 47.2 31.71 46.89C31.93 46.52 32.01 46.16 31.94 45.87C31.82 45.38 32.14 44.14 32.39 44.14C32.57 44.14 33.21 45.48 33.38 46.2C33.44 46.5 33.66 46.92 33.85 47.13C34.17 47.49 34.31 47.51 35.9 47.42C37.55 47.33 37.63 47.3 38.06 46.77C38.38 46.37 38.53 45.92 38.6 45.13C38.73 43.75 39.33 42.8 40.7 41.82L41.74 41.09L41.99 41.49C42.13 41.71 42.43 42.36 42.66 42.93C43.04 43.88 43.06 44.03 42.85 44.85C42.73 45.34 42.68 45.91 42.75 46.11C42.81 46.32 42.73 46.88 42.55 47.38L42.24 48.26L42.66 48.71C43.13 49.23 43.46 49.29 43.61 48.9C43.74 48.54 44.07 48.55 44.07 48.91C44.07 49.29 44.42 49.15 44.82 48.61C45.13 48.19 45.13 48.12 44.87 47.36C44.71 46.92 44.62 46.42 44.67 46.25C44.71 46.08 44.67 45.6 44.57 45.17C44.35 44.21 44.36 43.08 44.61 41.89C44.78 41.05 44.75 40.87 44.35 40C44.11 39.47 43.95 39 43.99 38.96C44.03 38.92 44.36 39 44.73 39.15C46.45 39.83 47.79 39.68 48.6 38.7L49.09 38.12L48.04 38.03C46.85 37.93 46.8 37.9 45.54 36.78C44.66 36 44.63 35.94 44.72 35.24C44.78 34.82 44.69 33.91 44.52 33.13C44.24 31.87 44.24 31.69 44.5 30.78C44.66 30.24 44.78 29.56 44.78 29.27C44.78 28.4 44.31 27.06 43.75 26.36C43.46 25.99 43.13 25.37 43.03 24.97C42.92 24.57 42.64 23.95 42.4 23.6C41.99 22.98 41.98 22.91 42.22 22.32C42.37 21.98 42.48 21.25 42.48 20.71C42.48 19.85 42.41 19.63 41.91 19.05C40.82 17.8 40.31 17.69 35.13 17.53C29.16 17.35 28.21 17.12 29.14 16.08C29.52 15.66 30.14 15.67 31.43 16.12C32.84 16.62 34.57 16.75 35.58 16.42C36.44 16.14 36.46 16.16 34.96 15.84C34.71 15.79 34.52 15.66 34.52 15.55C34.52 15.41 34.79 15.38 35.36 15.46C37.67 15.77 38.06 15.8 38.06 15.62C38.06 15.33 36.5 14.73 34.88 14.4C32.27 13.86 29.76 14.31 28.57 15.51C27.84 16.25 27.75 17.04 28.36 17.45C29.13 17.95 30.39 18.11 34.89 18.25C39.01 18.38 39.5 18.43 40.22 18.78C41.1 19.22 41.48 19.78 41.46 20.61C41.44 21.3 40.98 22.04 40.57 22.04C39.88 22.04 37.6 21.46 35.98 20.87C35.03 20.53 34.09 20.25 33.9 20.25C33.46 20.25 32.94 20.59 31.41 21.9C30.75 22.47 29.58 23.26 28.8 23.67C26.29 25 25.51 26.05 25.17 28.62C24.98 30 24.74 30.56 23.66 32.18C22.77 33.52 22.13 35.33 22.13 36.55C22.12 37.14 21.92 38.08 21.57 39.06C21.12 40.36 21.02 40.94 20.99 42.43C20.95 43.97 20.88 44.35 20.5 45.06C20.22 45.58 20 46.35 19.92 47.09C19.8 48.17 19.72 48.36 18.92 49.3C18.45 49.87 18.05 50.43 18.05 50.55C18.05 50.67 17.81 51.05 17.52 51.39C16.84 52.17 16.51 53.06 16.79 53.35C16.94 53.5 17.06 53.45 17.27 53.16C17.66 52.59 17.88 52.66 17.7 53.29C17.6 53.65 17.62 53.85 17.76 53.91C18.02 54.03 19.03 53.87 19.56 53.63ZM33.1 15.94C32.61 15.62 33.08 15.54 33.84 15.81L34.6 16.08L33.98 16.1C33.64 16.1 33.25 16.03 33.1 15.94ZM7.56 15.72C8.94 15.21 9.02 15.15 9.02 14.66C9.02 14.37 9 14.14 8.96 14.14C8.93 14.14 8.44 14.3 7.87 14.5C7.31 14.69 6.82 14.86 6.78 14.86C6.75 14.86 6.72 13.44 6.72 11.71C6.72 9.98 6.69 8.57 6.66 8.57C6.63 8.57 6.35 8.66 6.04 8.77L5.48 8.96L5.48 12.74C5.48 16.26 5.5 16.5 5.79 16.39C5.96 16.32 6.76 16.02 7.56 15.72ZM57.53 12.72L57.53 8.96L56.97 8.77C56.66 8.66 56.39 8.57 56.35 8.57C56.32 8.57 56.29 10.25 56.29 12.31L56.29 16.06L56.86 16.25C57.07 16.32 57.28 16.38 57.48 16.45C57.51 16.46 57.53 14.78 57.53 12.72ZM54.83 11.68L54.78 7.97L54.3 7.83L53.81 7.7L53.81 9.71C53.8 12 53.79 12 52.73 9.29C51.95 7.3 51.7 6.95 51.03 6.95L50.62 6.95L50.62 10.63C50.62 13.46 50.68 14.32 50.85 14.32C50.97 14.32 51.24 14.37 51.46 14.43C51.85 14.53 51.85 14.51 51.9 12.35L51.95 10.16L52.92 12.61C53.45 13.96 54.01 15.13 54.16 15.22C54.86 15.64 54.88 15.54 54.83 11.68ZM10.64 14.75C10.7 14.71 10.81 14.24 10.87 13.69C11.01 12.58 11 12.6 11.88 12.43L12.52 12.31L12.74 13.22C12.95 14.1 12.96 14.12 13.51 14.01C13.82 13.95 14.1 13.88 14.14 13.84C14.23 13.77 12.55 7.08 12.4 6.93C12.35 6.87 12.05 6.89 11.76 6.97C11.22 7.12 11.21 7.15 10.55 10.05C10.25 11.37 9.95 12.69 9.65 14.01L9.4 15.06L9.97 14.94C10.28 14.87 10.58 14.78 10.64 14.75ZM11.41 11.1C11.47 10.91 11.58 10.41 11.65 9.98L11.79 9.2L12.02 10.16C12.22 10.97 12.22 11.15 12.01 11.28C11.58 11.55 11.29 11.47 11.41 11.1L11.41 11.1ZM49.39 10.29C49.39 8.27 49.33 6.58 49.25 6.54C49.18 6.5 48.9 6.41 48.63 6.34L48.15 6.23L48.15 13.75L48.63 13.83C48.9 13.87 49.18 13.92 49.25 13.93C49.33 13.95 49.39 12.31 49.39 10.29ZM15.96 13.51C16.13 13.44 16.18 13.09 16.14 12.2C16.1 11.53 16.1 10.66 16.14 10.27C16.19 9.61 16.24 9.71 16.88 11.61L17.57 13.66L18.21 11.36L18.85 9.06L18.9 11.08C18.94 12.81 18.99 13.08 19.22 12.99C19.37 12.93 19.65 12.88 19.84 12.88C20.16 12.88 20.18 12.71 20.18 9.14L20.18 5.41L19.57 5.48C18.98 5.55 18.96 5.58 18.5 7.1C18.24 7.96 17.93 8.98 17.8 9.38L17.57 10.1L16.99 8.21C16.68 7.17 16.35 6.25 16.28 6.17C16.2 6.09 15.89 6.07 15.59 6.14L15.04 6.26L15.04 9.93C15.04 13.43 15.06 13.6 15.38 13.6C15.57 13.6 15.83 13.56 15.96 13.51ZM46.69 9.69L46.64 5.96L46.15 5.91L45.67 5.85L45.67 8.75L44.91 8.65C43.68 8.47 43.72 8.53 43.72 6.96C43.72 5.92 43.66 5.51 43.5 5.51C43.38 5.51 43.1 5.46 42.88 5.4L42.48 5.29L42.48 12.84L43.1 12.91L43.72 12.99L43.72 11.32C43.72 9.47 43.66 9.54 45 9.76L45.67 9.87L45.67 11.54C45.67 12.98 45.71 13.22 45.98 13.29C46.76 13.5 46.74 13.6 46.69 9.69ZM24.41 12.28C25.14 11.93 25.55 11.18 25.56 10.2C25.57 9.5 25.49 9.21 25.19 8.91C24.81 8.52 24.81 8.52 25.15 7.96C25.56 7.29 25.58 6.58 25.22 5.87C24.89 5.22 24.03 4.98 22.57 5.13L21.5 5.25L21.46 8.99L21.41 12.74L22.7 12.61C23.4 12.54 24.17 12.39 24.41 12.28ZM22.65 10.4C22.65 9.46 22.7 9.32 23.03 9.23C24.02 8.97 24.74 9.96 24.23 10.89C24.04 11.24 23.8 11.37 23.31 11.41L22.65 11.46L22.65 10.4ZM22.65 7.22L22.65 6.23L23.24 6.23C23.95 6.23 24.25 6.51 24.25 7.15C24.25 7.72 24.01 7.94 23.23 8.09L22.65 8.2L22.65 7.22ZM40.65 12.25C41.12 11.94 41.42 10.98 41.42 9.78C41.42 8.83 41.4 8.82 40.14 8.69L39.29 8.61L39.29 9.22C39.29 9.75 39.35 9.83 39.74 9.83C40.09 9.83 40.18 9.91 40.18 10.29C40.18 11.35 39.34 11.83 38.7 11.12C37.84 10.14 38.03 6.44 38.96 6.14C39.35 6.01 40 6.48 40 6.89C40 7.05 40.22 7.13 40.62 7.13C41.33 7.13 41.4 6.89 40.98 6.06C40.6 5.32 40.04 4.98 39.21 4.98C37.69 4.98 37 6.13 37 8.66C37.01 10.33 37.26 11.39 37.8 12C38.43 12.7 39.79 12.82 40.65 12.25ZM29.7 12.06C29.92 11.9 30.27 11.44 30.48 11.03C31.04 9.95 31.05 7.23 30.5 6.02C30.13 5.2 29.41 4.62 28.75 4.62C28.13 4.62 27.3 5.19 26.91 5.89C26.09 7.38 26.25 10.66 27.21 11.81C27.58 12.26 27.77 12.34 28.47 12.34C28.94 12.34 29.48 12.22 29.7 12.06ZM28.01 10.78C27.79 10.42 27.69 9.85 27.65 8.67C27.6 7.28 27.65 6.96 27.96 6.45C28.42 5.7 28.99 5.72 29.38 6.5C29.78 7.31 29.75 10.13 29.33 10.78C28.93 11.4 28.41 11.4 28.01 10.78ZM33.1 10.67C33.1 9.15 33.12 9.08 33.48 9.14C33.78 9.19 33.97 9.52 34.4 10.77L34.95 12.34L36.27 12.34L35.69 10.65L35.11 8.95L35.59 8.5C36.17 7.94 36.35 7.13 36.1 6.2C35.82 5.16 35.13 4.8 33.42 4.8L32.05 4.8L32 8.49C31.97 10.53 31.96 12.21 31.98 12.22C31.99 12.24 32.25 12.25 32.55 12.25L33.1 12.25L33.1 10.67L33.1 10.67ZM33.23 7.93C33.16 7.85 33.1 7.35 33.1 6.81L33.1 5.83L33.84 5.93C34.91 6.07 35.35 6.82 34.82 7.55C34.59 7.88 33.45 8.15 33.23 7.93ZM0.02 12.88C0.02 12.63 0.06 12.53 0.11 12.65C0.16 12.78 0.16 12.98 0.11 13.1C0.06 13.23 0.02 13.13 0.02 12.88L0.02 12.88ZM0.05 11.26C0.05 10.72 0.08 10.5 0.12 10.77C0.16 11.04 0.16 11.49 0.12 11.76C0.08 12.03 0.05 11.81 0.05 11.26Z" fill="#5C4B21" fill-opacity="1.000000" fill-rule="nonzero"/>
		<path d="M29.8 68.28C25.45 65.13 20.02 60 16.97 56.17C7.75 44.6 3.38 31.57 2.73 13.69C2.55 8.93 2.79 8.35 5.39 7.25C12.16 4.37 20.88 2.93 31.51 2.93C39.51 2.94 45.11 3.57 51.24 5.15C54.02 5.87 57.92 7.24 58.9 7.85C59.64 8.3 60.14 9.14 60.3 10.18C60.45 11.21 60.1 18.49 59.74 21.68C57.87 38.18 51.9 50.95 41.06 61.63C37.57 65.06 32.3 69.29 31.5 69.29C31.33 69.29 30.56 68.83 29.8 68.28ZM19.59 53.67C20.01 53.41 20.19 53.14 20.28 52.63C20.35 52.26 20.55 51.76 20.73 51.52C20.97 51.21 21.06 50.79 21.06 49.97C21.06 48.92 21.11 48.79 21.77 47.97C22.26 47.38 22.62 46.66 22.91 45.71C23.14 44.95 23.49 44.1 23.68 43.83C23.87 43.55 24.28 42.82 24.58 42.21C24.89 41.59 25.21 41.08 25.29 41.08C25.67 41.08 25.91 41.71 25.88 42.57C25.83 43.67 25.96 44.14 26.3 44.14C26.52 44.14 26.52 44.21 26.29 44.67C26.14 44.96 26.02 45.3 26.02 45.42C26.02 45.97 25.23 47.21 24.66 47.57C24.32 47.78 23.86 48.13 23.64 48.34C23.39 48.58 23.13 48.81 22.86 49.03C22.5 49.32 22.39 49.82 22.47 50.69C22.52 51.21 22.79 51.44 23.04 51.18C23.38 50.84 23.57 50.93 23.36 51.32C23.19 51.65 23.23 51.68 23.75 51.68C24.42 51.68 25.49 51.09 25.49 50.72C25.49 50.47 26.74 47.94 27.18 47.3C27.3 47.12 27.65 46.82 27.95 46.63C28.25 46.45 28.64 45.99 28.8 45.62C29.2 44.73 29.72 44.14 30.12 44.14C30.3 44.14 30.44 44.18 30.44 44.23C30.44 44.54 29.35 46.44 29.13 46.53C28.8 46.66 27.91 48.4 28.06 48.63C28.2 48.86 28.67 48.86 28.67 48.63C28.67 48.53 28.75 48.45 28.84 48.45C28.94 48.45 28.97 48.58 28.91 48.74C28.75 49.15 29.14 49.32 29.85 49.16C30.77 48.95 31.33 48.51 31.33 47.99C31.33 47.74 31.5 47.3 31.71 47.01C32 46.62 32.06 46.34 31.98 45.84C31.88 45.2 32.13 44.32 32.41 44.32C32.62 44.32 33.02 45.17 33.27 46.11C33.62 47.43 33.76 47.51 35.78 47.51C37.12 47.51 37.6 47.45 37.76 47.25C37.87 47.1 38.12 46.81 38.31 46.61C38.55 46.34 38.66 45.94 38.68 45.2C38.7 44.34 38.8 44.03 39.31 43.32C40.07 42.25 41.54 41.17 41.87 41.45C41.99 41.55 42.31 42.18 42.57 42.83C42.99 43.92 43.02 44.1 42.83 44.8C42.71 45.22 42.66 45.79 42.71 46.06C42.76 46.34 42.69 46.83 42.55 47.17C42.2 48.02 42.24 48.4 42.74 48.9C43.28 49.45 43.51 49.46 43.71 48.94L43.86 48.54L44.03 48.98L44.2 49.42L44.67 48.94C45.2 48.4 45.25 47.94 44.88 47.21C44.74 46.93 44.67 46.53 44.72 46.31C44.78 46.09 44.72 45.43 44.6 44.84C44.42 43.96 44.42 43.48 44.6 42.28C44.81 40.88 44.81 40.77 44.45 40.09C43.88 39.02 43.95 38.91 44.96 39.3C46.49 39.89 48.11 39.65 48.74 38.73C49.19 38.08 49.11 37.84 48.51 37.96C47.57 38.16 46.82 37.88 45.77 36.95L44.76 36.06L44.67 34.48C44.58 32.83 44.57 31.87 44.65 29.26C44.69 27.67 44.69 27.66 43.99 26.61C43.61 26.02 43.16 25.16 43 24.68C42.84 24.21 42.53 23.63 42.31 23.4C41.94 23 41.94 22.95 42.2 22.42C43.05 20.76 42.54 19.13 40.9 18.2L39.94 17.66L35.41 17.52C29.67 17.34 28.59 17.13 29.04 16.28C29.33 15.72 29.96 15.7 31.49 16.19C33.05 16.69 34.76 16.8 35.73 16.45C36.37 16.23 36.3 15.93 35.6 15.93C35.33 15.93 34.96 15.81 34.77 15.65C34.45 15.39 34.47 15.38 35.13 15.47C37.3 15.77 38.05 15.8 38.05 15.59C38.05 15.48 37.72 15.24 37.3 15.06C34.74 13.95 31.49 13.83 29.63 14.77C28.69 15.25 27.79 16.19 27.79 16.69C27.79 17.02 28.65 17.71 29.31 17.91C29.69 18.02 32.07 18.19 34.6 18.29C39.57 18.47 40.41 18.63 41.06 19.47C41.54 20.09 41.52 21 41.02 21.6L40.61 22.07L39.23 21.78C38.48 21.62 37.16 21.24 36.32 20.93C33.67 19.97 33.65 19.97 31.55 21.75C30.84 22.36 29.45 23.3 28.46 23.85C25.94 25.25 25.43 26.05 25.04 29.26C24.97 29.86 24.67 30.51 24.03 31.51C22.68 33.61 22.29 34.58 22.12 36.37C22.02 37.29 21.74 38.57 21.42 39.47C20.98 40.74 20.89 41.27 20.89 42.63C20.88 44.03 20.82 44.39 20.45 45.06C20.22 45.49 19.98 46.25 19.91 46.74C19.72 48.26 19.66 48.41 18.86 49.33C18.43 49.82 18.03 50.41 17.95 50.64C17.88 50.86 17.6 51.32 17.32 51.64C16.76 52.29 16.54 52.96 16.72 53.43C16.82 53.71 16.9 53.68 17.29 53.21L17.73 52.67L17.62 53.34L17.5 54.02L18.26 54.02C18.71 54.02 19.26 53.87 19.59 53.67ZM33.18 15.92C33 15.62 33.14 15.6 33.81 15.85L34.43 16.09L33.86 16.1C33.55 16.11 33.24 16.03 33.18 15.92ZM6.08 31.34C5.25 27.02 4.7 22.13 4.43 16.56C4.14 10.7 4.13 10.64 3.8 10.12C3.63 9.86 3.42 9.65 3.34 9.65C2.83 9.65 3.49 19.84 4.35 25.09C4.84 28.11 5.95 32.64 6.19 32.64C6.27 32.64 6.21 32.05 6.08 31.34ZM9.2 14.63C9.2 14.26 9.17 13.96 9.14 13.96C9.11 13.96 8.62 14.12 8.05 14.32C7.48 14.52 6.98 14.64 6.93 14.58C6.88 14.53 6.8 13.16 6.76 11.53C6.71 9.9 6.61 8.57 6.53 8.57C6.45 8.57 6.19 8.65 5.94 8.74L5.48 8.92L5.48 16.64L7.34 15.97L9.2 15.3L9.2 14.63ZM57.4 8.91C57.32 8.83 57.04 8.72 56.78 8.65L56.29 8.53L56.29 16.11L56.86 16.35L57.44 16.59L57.49 12.82C57.51 10.74 57.47 8.98 57.4 8.91L57.4 8.91ZM55.05 11.81C55.05 9.74 54.99 8.02 54.92 7.97C54.84 7.93 54.52 7.83 54.19 7.76L53.6 7.63L53.66 9.45C53.69 10.45 53.68 11.26 53.63 11.26C53.58 11.26 53.21 10.39 52.79 9.33C51.87 6.97 51.9 7.03 51.2 6.87L50.62 6.74L50.62 10.52C50.62 12.6 50.68 14.33 50.76 14.37C50.83 14.41 51.11 14.5 51.38 14.56L51.86 14.68L51.86 12.58C51.86 11.42 51.93 10.55 52.01 10.64C52.09 10.74 52.54 11.81 53.01 13.03C53.85 15.19 54.09 15.52 54.83 15.56C55 15.57 55.05 14.71 55.05 11.81ZM10.23 15.02C10.72 14.85 10.8 14.71 10.98 13.78C11.17 12.83 11.23 12.73 11.72 12.63C12.52 12.47 12.52 12.47 12.65 13.2C12.82 14.24 12.92 14.34 13.68 14.12C14.04 14.02 14.33 13.9 14.33 13.85C14.33 13.79 14.03 12.6 13.65 11.2C13.27 9.8 12.86 8.23 12.73 7.71C12.5 6.78 12.48 6.76 11.95 6.87C11.66 6.94 11.36 7.04 11.29 7.11C11.16 7.23 9.38 14.57 9.38 14.99C9.38 15.27 9.52 15.27 10.23 15.02ZM11.57 10.87C11.63 10.57 11.68 10.19 11.68 10.04C11.68 9.58 11.97 10.03 12.09 10.66C12.18 11.13 12.13 11.24 11.83 11.32C11.5 11.41 11.47 11.36 11.57 10.87ZM59.99 11.53C60 10.24 59.88 9.47 59.66 9.47C59.6 9.47 59.4 9.57 59.22 9.7C58.92 9.93 58.92 10.02 59.21 11.9C59.37 12.98 59.55 13.99 59.61 14.14C59.75 14.53 59.98 13 59.99 11.53ZM49.38 10.3L49.38 6.46L48.83 6.34C48.52 6.28 48.25 6.25 48.23 6.28C48.21 6.3 48.14 7.99 48.08 10.03L47.96 13.74L48.63 13.92C49 14.02 49.32 14.11 49.34 14.12C49.37 14.13 49.38 12.41 49.38 10.3ZM15.88 13.66C16.26 13.56 16.28 13.46 16.3 11.83L16.32 10.09L16.89 11.85C17.21 12.81 17.51 13.65 17.56 13.7C17.61 13.75 17.82 13.25 18.02 12.57L18.64 10.45L18.9 9.56L18.92 11.37L18.94 13.18L19.6 13.07L20.26 12.96L20.2 9.19C20.16 7.12 20.11 5.4 20.08 5.37C20.06 5.34 19.77 5.38 19.45 5.47C18.87 5.62 18.84 5.68 18.24 7.75L17.62 9.87L16.98 7.92C16.35 5.99 16.33 5.96 15.82 6.02C15.54 6.06 15.25 6.14 15.19 6.2C15.12 6.27 15.04 8 15.01 10.05C14.95 14.08 14.91 13.93 15.88 13.66ZM46.91 9.84C46.91 7.77 46.85 6.04 46.77 5.99C46.7 5.95 46.4 5.88 46.11 5.85L45.58 5.78L45.53 7.18C45.48 8.56 45.47 8.57 45 8.57C43.8 8.56 43.74 8.48 43.68 6.89L43.63 5.42L43.06 5.37L42.48 5.31L42.48 9.08C42.48 13.1 42.47 13.06 43.37 13.06C43.67 13.06 43.71 12.89 43.76 11.4L43.81 9.74L44.52 9.8C44.91 9.83 45.29 9.9 45.36 9.94C45.43 9.99 45.49 10.78 45.49 11.71L45.49 13.4L46.07 13.47C46.38 13.51 46.7 13.55 46.77 13.57C46.85 13.59 46.91 11.91 46.91 9.84ZM24.38 12.42C25.54 11.94 26.03 10.17 25.33 9.01C25.05 8.53 25.03 8.41 25.24 8.12C25.58 7.66 25.55 6.23 25.2 5.72C24.78 5.1 24.14 4.94 22.7 5.07L21.41 5.2L21.41 12.89L22.61 12.77C23.27 12.71 24.06 12.55 24.38 12.42ZM22.73 11.19C22.67 11.06 22.66 10.59 22.69 10.16C22.74 9.45 22.79 9.37 23.24 9.32C23.94 9.24 24.25 9.57 24.25 10.39C24.25 10.98 24.17 11.12 23.79 11.27C23.17 11.51 22.84 11.49 22.73 11.19ZM22.65 7.24C22.65 6.56 22.71 6.44 23.08 6.34C23.68 6.19 24.05 6.38 24.18 6.89C24.32 7.47 23.82 8.03 23.16 8.03C22.68 8.03 22.65 7.99 22.65 7.24ZM40.43 12.5C41.07 12.2 41.42 11.3 41.42 9.96L41.42 8.8L40.6 8.68C39.31 8.5 39.29 8.51 39.29 9.2C39.29 9.71 39.36 9.83 39.65 9.83C40.16 9.83 40.17 11.18 39.66 11.35C38.76 11.64 38.24 10.64 38.23 8.61C38.23 7.1 38.59 6.23 39.21 6.23C39.57 6.23 39.73 6.36 39.88 6.78C40.07 7.29 40.14 7.33 40.71 7.22C41.05 7.15 41.35 7.07 41.38 7.04C41.41 7.02 41.33 6.71 41.18 6.37C40.41 4.49 38.11 4.34 37.33 6.13C36.86 7.21 36.72 8.94 36.99 10.27C37.29 11.73 38.2 12.7 39.27 12.7C39.66 12.7 40.18 12.61 40.43 12.5ZM29.66 12.18C30.45 11.69 30.85 10.7 30.94 9C31.08 6.26 30.22 4.62 28.64 4.62C28.07 4.62 27.81 4.73 27.34 5.21C26.56 6 26.32 7.01 26.4 9.11C26.46 10.48 26.55 10.95 26.86 11.46C27.51 12.53 28.63 12.82 29.66 12.18ZM28.25 10.99C27.34 10.06 27.5 6.34 28.46 5.97C29.59 5.53 30.12 9.77 29.09 10.93C28.73 11.33 28.6 11.34 28.25 10.99ZM36.29 12.37C36.29 12.29 36.05 11.52 35.76 10.64L35.23 9.06L35.78 8.42C36.27 7.85 36.32 7.7 36.25 6.83C36.11 5.21 35.23 4.62 32.97 4.62L31.86 4.62L31.86 12.34L33.28 12.34L33.28 10.72C33.28 8.57 33.57 8.57 34.33 10.71C34.84 12.13 34.96 12.33 35.37 12.39C36.21 12.52 36.29 12.52 36.29 12.37ZM33.28 6.91L33.28 5.95L33.89 6.02C34.66 6.11 34.91 6.41 34.84 7.16C34.78 7.73 34.74 7.76 34.03 7.82L33.28 7.87L33.28 6.91ZM4.77 8.52C4.78 8.29 4.16 8.38 3.74 8.68L3.33 8.97L3.74 9.4L4.14 9.84L4.45 9.25C4.62 8.92 4.76 8.6 4.77 8.52Z" fill="#282928" fill-opacity="1.000000" fill-rule="nonzero"/>
		<path d="M28.86 67.31C16.49 57.83 8.83 46.19 5.29 31.45C3.86 25.52 3 18.2 3 12.05C3 8.69 3.23 8.32 6.12 7.15C15.41 3.39 29.19 2.07 42.6 3.65C49.38 4.45 57.97 6.95 59.32 8.51C59.87 9.15 60 9.51 59.62 9.38C59.5 9.33 59.22 9.44 59 9.61C58.6 9.93 58.6 9.93 58.85 11.45C58.99 12.28 59.16 13.83 59.23 14.89C59.3 15.95 59.42 16.82 59.49 16.82C59.72 16.82 59.84 15.54 59.88 12.52L59.92 9.56L59.98 11.98C60.1 16.52 59.44 23.28 58.35 28.75C56.31 38.96 52.35 47.78 46.36 55.46C42.58 60.3 33.03 69 31.48 69C31.22 68.99 30.21 68.35 28.86 67.31L28.86 67.31ZM33.11 67.54C35.4 66.02 37.65 64.1 40.24 61.43C43.79 57.77 45.85 55.32 46.56 53.92C46.78 53.49 46.77 53.41 46.46 53.12C46.13 52.82 46.05 52.88 43.7 55.25C40.76 58.2 38.72 59.88 38.72 59.34C38.72 59.02 36.44 57.7 35.08 57.23C32.66 56.4 30.02 56.48 27.86 57.44L26.95 57.85L26.66 56.83C25.83 53.96 25.36 50.14 25.8 49.85C25.91 49.78 26.22 49.22 26.49 48.6C26.84 47.8 27.24 47.25 27.89 46.68C28.45 46.2 28.87 45.66 28.97 45.31C29.14 44.72 29.92 43.98 30.25 44.1C30.54 44.2 29.9 45.48 29.1 46.42C28.72 46.87 28.3 47.5 28.17 47.82C27.97 48.32 27.97 48.44 28.22 48.69C28.48 48.95 28.51 48.95 28.63 48.63C28.75 48.32 28.77 48.33 28.87 48.73C29 49.32 29.53 49.39 30.51 48.95C31.19 48.64 31.29 48.52 31.39 47.88C31.45 47.49 31.63 47.06 31.78 46.93C31.97 46.77 32.05 46.46 32.02 45.97C31.97 45.2 32.16 44.25 32.37 44.25C32.58 44.25 33.06 45.22 33.18 45.91C33.25 46.28 33.46 46.79 33.65 47.03C33.98 47.46 34.09 47.48 35.81 47.48L37.63 47.48L38.13 46.81C38.51 46.29 38.63 45.93 38.66 45.2C38.69 43.93 39.33 42.85 40.61 41.92L41.62 41.19L41.9 41.58C42.06 41.79 42.36 42.44 42.56 43.02C42.85 43.85 42.9 44.18 42.76 44.56C42.66 44.82 42.55 45.53 42.51 46.12C42.47 46.72 42.39 47.5 42.33 47.86C42.23 48.42 42.27 48.55 42.69 48.89C43.3 49.37 43.45 49.37 43.65 48.87C43.76 48.58 43.81 48.55 43.82 48.77C43.83 49.28 44.18 49.33 44.65 48.89C45.02 48.53 45.07 48.36 44.98 47.75C44.89 47.12 44.81 46.49 44.73 45.87C44.64 45.22 44.52 44.56 44.44 44.38C44.37 44.2 44.41 43.32 44.54 42.41C44.75 40.83 44.74 40.72 44.38 40C43.86 38.97 43.9 38.81 44.56 39.16C45.32 39.56 47.02 39.7 47.7 39.41C48.27 39.17 48.93 38.44 48.93 38.05C48.93 37.87 48.72 37.84 48.09 37.91C47.4 37.99 47.16 37.94 46.7 37.59C46.4 37.36 45.82 36.93 45.42 36.63C44.74 36.12 44.71 36.06 44.8 35.35C44.86 34.94 44.77 34.05 44.61 33.31C44.45 32.6 44.36 31.76 44.42 31.45C44.48 31.15 44.61 30.51 44.7 30.03C44.94 28.84 44.66 27.63 43.83 26.36C43.47 25.8 43.07 25.01 42.95 24.62C42.82 24.22 42.57 23.68 42.38 23.41C42.05 22.93 42.05 22.88 42.34 22C42.9 20.26 42.32 18.85 40.71 18.05C39.92 17.66 39.57 17.63 35.55 17.51C31.69 17.39 29.68 17.2 29.21 16.9C28.88 16.69 29.05 16.09 29.49 15.88C29.87 15.71 30.19 15.76 31.47 16.19C33.11 16.75 34.83 16.86 35.79 16.48C36.42 16.23 36.28 16 35.39 15.86C35.01 15.79 34.65 15.66 34.59 15.56C34.44 15.32 34.81 15.34 36.16 15.66C37.25 15.91 38.2 15.87 38.2 15.57C38.2 15.37 36.71 14.75 35.44 14.41C34.01 14.04 31.46 14.04 30.3 14.42C29.23 14.78 28.07 15.73 27.91 16.39C27.76 16.99 28.25 17.57 29.18 17.88C29.55 18 31.98 18.2 34.76 18.33C40 18.57 40.48 18.66 41.09 19.55C41.49 20.13 41.43 21.02 40.96 21.58C40.56 22.06 40.53 22.06 39.59 21.85C39.07 21.73 37.6 21.29 36.34 20.88C34.56 20.29 33.93 20.15 33.52 20.26C33.24 20.34 32.41 20.93 31.68 21.57C30.95 22.21 29.59 23.14 28.64 23.66C26.21 24.96 25.47 25.97 25.17 28.38C25 29.74 24.71 30.44 23.49 32.41C22.65 33.76 22.18 35.13 22.18 36.2C22.18 36.75 21.94 37.82 21.56 38.97C21.04 40.56 20.95 41.1 20.95 42.44C20.95 43.79 20.88 44.17 20.51 44.91C20.27 45.38 20.02 46.18 19.97 46.67C19.8 48.15 19.76 48.24 18.84 49.35C18.35 49.94 17.95 50.57 17.95 50.74C17.95 50.92 17.88 51.06 17.79 51.06C17.49 51.06 16.72 52.38 16.72 52.89C16.72 53.57 17.06 53.71 17.45 53.2L17.78 52.77L17.67 53.35C17.57 53.86 17.61 53.93 17.93 53.93C18.18 53.93 18.44 54.2 18.77 54.79C20.63 58.11 24.74 62.99 27.81 65.52C29.36 66.8 31.49 68.28 31.78 68.28C31.89 68.28 32.49 67.94 33.11 67.54ZM21.12 50.99C21.21 50.73 21.28 50.12 21.27 49.64C21.26 48.91 21.35 48.63 21.78 48.07C22.45 47.2 22.79 46.52 23.06 45.51C23.29 44.65 25.12 41.02 25.33 41.02C25.69 41.02 25.87 41.56 25.87 42.66C25.87 43.57 25.94 43.91 26.15 44.03C26.6 44.29 25.96 46.11 25.14 46.92C24.07 47.98 23.53 48.45 23.02 48.77C22.67 49 22.5 49.29 22.42 49.81C22.36 50.2 22.25 50.53 22.17 50.53C22.09 50.53 21.79 50.74 21.49 50.99L20.94 51.46L21.12 50.99ZM33.27 15.92C33.05 15.78 33.06 15.75 33.36 15.76C33.55 15.76 33.87 15.84 34.06 15.92C34.38 16.06 34.37 16.08 33.97 16.09C33.73 16.09 33.41 16.02 33.27 15.92ZM8.34 38.74C8.01 37.68 7.39 35.36 6.96 33.58C5.48 27.5 4.99 23.4 4.48 13.03C4.39 11.26 4.3 10.64 4.04 10.2C3.65 9.55 3.35 9.48 3.33 10.05C3.11 17.41 4.3 26.77 6.33 33.61C7.21 36.58 8.65 40.67 8.82 40.67C8.88 40.67 8.67 39.8 8.34 38.74ZM13.82 28.21C17.24 27.29 20.44 24.6 21.93 21.39C22.11 21 22.27 20.63 22.28 20.58C22.29 20.53 22.44 20.01 22.62 19.42C22.87 18.62 22.96 17.79 22.96 16.19C22.97 13.78 22.84 13.06 22.4 13.03C22.23 13.02 22.54 12.94 23.1 12.86C25.01 12.57 25.7 11.87 25.7 10.21C25.7 9.61 25.59 9.19 25.36 8.9C25.04 8.51 25.04 8.46 25.32 8.15C25.51 7.93 25.61 7.5 25.61 6.92C25.61 6.14 25.54 5.97 25.04 5.51C24.43 4.96 23.64 4.85 22.14 5.1L21.48 5.21L21.48 7.59C21.48 8.9 21.43 10.1 21.37 10.26C21.31 10.42 21.07 10.54 20.84 10.54L20.42 10.54L20.42 7.94C20.42 5.37 20.42 5.34 20.02 5.35C19 5.35 18.92 5.45 18.3 7.63L17.71 9.71L17.09 7.8L16.47 5.88L15.85 5.99C15.51 6.06 15.17 6.14 15.09 6.18C15.02 6.23 14.96 7.38 14.96 8.74L14.96 11.22L14.5 11.34C14.24 11.41 13.98 11.39 13.91 11.31C13.84 11.24 13.54 10.21 13.24 9.04C12.94 7.87 12.66 6.88 12.61 6.83C12.57 6.79 12.25 6.81 11.91 6.87L11.29 6.99L10.83 8.99C9.99 12.61 10.15 12.27 9.11 12.52C8.6 12.64 7.93 12.85 7.61 12.98L7.04 13.21L7.04 10.78C7.04 8.63 7.01 8.37 6.76 8.46C6.61 8.52 6.29 8.62 6.05 8.68L5.62 8.79L5.68 12.85C5.76 17.33 5.98 18.95 7.11 23.11C7.97 26.3 8.75 28.28 9.22 28.49C9.74 28.72 12.54 28.55 13.82 28.21ZM11.69 10.98C11.75 10.82 11.79 10.52 11.79 10.31C11.79 9.82 12.06 10.11 12.22 10.77C12.31 11.19 12.27 11.26 11.96 11.26C11.69 11.26 11.61 11.18 11.69 10.98ZM22.88 10.38C22.88 9.64 22.94 9.49 23.26 9.41C23.87 9.24 24.29 9.58 24.29 10.24C24.29 10.96 24.02 11.26 23.38 11.26C22.9 11.26 22.88 11.22 22.88 10.38ZM16.49 10.96C16.42 10.9 16.37 10.71 16.38 10.56C16.38 10.32 16.41 10.33 16.57 10.6C16.76 10.93 16.7 11.18 16.49 10.96ZM18.86 10.36C18.86 10.12 18.9 10.02 18.95 10.14C19 10.26 19 10.46 18.95 10.59C18.9 10.71 18.86 10.61 18.86 10.36ZM22.88 7.23C22.88 6.42 22.89 6.42 23.5 6.42C24.12 6.42 24.22 6.56 24.12 7.32C24.08 7.66 23.61 8.03 23.2 8.03C22.94 8.03 22.88 7.88 22.88 7.23ZM56.84 23.46C57.34 22.21 58.09 17.65 58.08 15.97C58.07 15.33 57.94 14.66 57.73 14.22C57.45 13.62 57.39 13.1 57.39 11.16L57.38 8.81L56.77 8.62L56.16 8.43L56.11 10.61C56.06 12.67 56.04 12.78 55.71 12.73C54.91 12.61 54.91 12.62 54.91 10.21L54.91 7.9L54.37 7.79C54.06 7.72 53.75 7.67 53.66 7.67C53.58 7.67 53.5 8.46 53.5 9.42L53.49 11.17L52.69 9.2C52.25 8.11 51.84 7.17 51.77 7.11C51.71 7.05 51.4 6.94 51.09 6.87L50.52 6.75L50.52 9.09C50.52 11.42 50.51 11.44 50.11 11.44C49.37 11.44 49.28 11.15 49.28 8.73C49.28 6.53 49.27 6.46 48.89 6.35C47.86 6.07 47.87 6.03 47.87 8.68L47.87 11.12L47.48 11.01C47.26 10.95 47.02 10.91 46.95 10.9C46.88 10.9 46.82 9.78 46.82 8.41L46.82 5.93L46.27 5.81C45.97 5.75 45.65 5.7 45.57 5.7C45.48 5.7 45.41 6.35 45.41 7.14C45.41 8.68 45.42 8.67 44.38 8.46L43.84 8.35L43.79 6.89L43.74 5.43L43.08 5.38L42.42 5.32L42.42 13.01L43.04 13.09C43.38 13.13 43.7 13.12 43.75 13.08C43.79 13.03 43.83 12.28 43.83 11.41C43.83 9.7 43.81 9.72 44.86 9.94L45.41 10.05L45.42 11.42C45.43 12.94 45.68 16.35 45.82 16.91C46.5 19.69 48.68 22.25 51.24 23.28C52.6 23.83 53.4 23.96 55.13 23.94C56.6 23.92 56.67 23.9 56.84 23.46ZM52.02 11.75C51.84 11.14 51.79 10.73 51.92 10.81C52.16 10.96 52.45 11.98 52.26 11.98C52.17 11.98 52.06 11.88 52.02 11.75ZM40.61 12.41C41.18 12.04 41.36 11.45 41.36 10.01C41.36 8.65 41.29 8.58 39.91 8.57C39.26 8.57 39.25 8.58 39.25 9.29C39.25 9.89 39.31 10.01 39.6 10.01C39.87 10.01 39.96 10.12 39.96 10.52C39.96 11.28 39.55 11.56 38.99 11.19C38.44 10.82 38.28 10.25 38.28 8.56C38.28 6.51 39.07 5.56 39.74 6.78C40 7.25 40.13 7.32 40.66 7.28C41.21 7.23 41.27 7.18 41.24 6.73C41.16 5.56 39.78 4.59 38.62 4.88C37.93 5.06 37.22 5.92 36.99 6.85C36.56 8.59 36.88 11 37.68 12.04C38.31 12.86 39.68 13.04 40.61 12.41ZM29.89 12.07C30.63 11.43 31 10.34 31.03 8.75C31.08 6.13 30.26 4.63 28.78 4.63C27.22 4.63 26.32 6.11 26.32 8.66C26.32 10.32 26.72 11.6 27.41 12.15C28.07 12.68 29.22 12.64 29.89 12.07ZM28.14 10.79C27.98 10.59 27.88 9.9 27.85 8.77C27.79 6.86 28 6.19 28.66 6.09C29.3 6 29.63 7.06 29.54 8.96C29.46 10.56 29.25 11.08 28.69 11.08C28.52 11.08 28.27 10.95 28.14 10.79ZM33.23 10.86C33.3 8.76 33.58 8.77 34.33 10.9L34.9 12.52L35.67 12.52C36.09 12.52 36.43 12.5 36.43 12.47C36.43 12.45 36.16 11.67 35.84 10.75L35.27 9.07L35.76 8.57C36.18 8.14 36.26 7.91 36.26 7.16C36.26 5.3 35.65 4.77 33.4 4.66L31.86 4.58L31.86 8.44C31.86 12.56 31.85 12.53 32.74 12.46C33.17 12.43 33.18 12.39 33.23 10.86ZM33.27 6.96C33.27 6.06 33.27 6.06 33.85 6.06C34.55 6.06 34.85 6.33 34.85 6.96C34.85 7.58 34.55 7.85 33.85 7.85C33.27 7.85 33.27 7.85 33.27 6.96ZM4.58 9.59C4.58 9.47 4.78 9.07 5.03 8.7C5.38 8.17 5.42 8.03 5.19 8.03C4.89 8.03 3.52 8.7 3.52 8.85C3.52 8.9 3.69 9.18 3.9 9.47C4.27 9.98 4.58 10.03 4.58 9.59L4.58 9.59ZM14.83 5.44C22.19 4.23 29.5 3.85 37.23 4.27C40.39 4.45 45.74 4.98 47.88 5.33C48.8 5.48 49.1 5.46 48.9 5.25C48.75 5.09 44.61 4.31 42.42 4.02C38.3 3.47 35.04 3.33 29.14 3.42C23 3.52 20.4 3.75 16.37 4.55C13.38 5.14 10.87 5.88 11.85 5.88C12.01 5.88 13.35 5.68 14.83 5.44Z" fill="#040404" fill-opacity="1.000000" fill-rule="nonzero"/>
	</g>
</svg>
